<?xml version="1.0" encoding="UTF-8"?>
<svg xmlns="http://www.w3.org/2000/svg" xmlns:xlink="http://www.w3.org/1999/xlink" width="469" height="10" viewBox="0 0 469 10">
<defs>
<clipPath id="clip-0">
<path clip-rule="nonzero" d="M 18 0.5 L 33 0.5 L 33 9.5 L 18 9.5 Z M 18 0.5 "/>
</clipPath>
<clipPath id="clip-1">
<path clip-rule="nonzero" d="M 28 0.5 L 30 0.5 L 30 9 L 28 9 Z M 28 0.5 "/>
</clipPath>
<clipPath id="clip-2">
<path clip-rule="nonzero" d="M 28 4 L 39.453125 4 L 39.453125 6 L 28 6 Z M 28 4 "/>
</clipPath>
<clipPath id="clip-3">
<path clip-rule="nonzero" d="M 12.453125 4 L 24 4 L 24 6 L 12.453125 6 Z M 12.453125 4 "/>
</clipPath>
</defs>
<path fill-rule="nonzero" fill="rgb(100%, 100%, 100%)" fill-opacity="1" stroke-width="8.00001" stroke-linecap="round" stroke-linejoin="miter" stroke="rgb(100%, 100%, 100%)" stroke-opacity="1" stroke-miterlimit="4" d="M 104.551562 14.296875 L 161.3875 14.296875 L 161.3875 80.234375 L 104.551562 80.234375 Z M 104.551562 14.296875 " transform="matrix(0.1, 0, 0, -0.1, 12.455, 9.5)"/>
<path fill-rule="nonzero" fill="rgb(0%, 0%, 0%)" fill-opacity="1" d="M 22.871094 7.804688 L 22.871094 1.765625 L 25.484375 3.277344 L 28.101562 4.785156 L 25.484375 6.296875 Z M 22.871094 7.804688 "/>
<g clip-path="url(#clip-0)">
<path fill="none" stroke-width="8" stroke-linecap="round" stroke-linejoin="miter" stroke="rgb(0%, 0%, 0%)" stroke-opacity="1" stroke-miterlimit="4" d="M 104.160937 16.953125 L 104.160937 77.34375 L 130.29375 62.226562 L 156.465625 47.148438 L 130.29375 32.03125 Z M 104.160937 16.953125 " transform="matrix(0.1, 0, 0, -0.1, 12.455, 9.5)"/>
</g>
<g clip-path="url(#clip-1)">
<path fill="none" stroke-width="8" stroke-linecap="butt" stroke-linejoin="miter" stroke="rgb(0%, 0%, 0%)" stroke-opacity="1" stroke-miterlimit="4" d="M 161.54375 83.945312 L 161.54375 10.273438 " transform="matrix(0.1, 0, 0, -0.1, 12.455, 9.5)"/>
</g>
<g clip-path="url(#clip-2)">
<path fill="none" stroke-width="8" stroke-linecap="butt" stroke-linejoin="miter" stroke="rgb(0%, 0%, 0%)" stroke-opacity="1" stroke-miterlimit="4" d="M 265.684375 47.148438 L 162.364062 47.148438 " transform="matrix(0.1, 0, 0, -0.1, 12.455, 9.5)"/>
</g>
<g clip-path="url(#clip-3)">
<path fill="none" stroke-width="8" stroke-linecap="butt" stroke-linejoin="miter" stroke="rgb(0%, 0%, 0%)" stroke-opacity="1" stroke-miterlimit="4" d="M 103.301562 47.148438 L -0.01875 47.148438 " transform="matrix(0.1, 0, 0, -0.1, 12.455, 9.5)"/>
</g>
</svg>
