<?xml version="1.0" encoding="UTF-8"?>
<svg xmlns="http://www.w3.org/2000/svg" xmlns:xlink="http://www.w3.org/1999/xlink" width="22pt" height="14pt" viewBox="0 0 22 14" version="1.2">
<defs>
<clipPath id="clip1">
  <path d="M 0.5 5 L 10 5 L 10 7 L 0.5 7 Z M 0.5 5 "/>
</clipPath>
<clipPath id="clip2">
  <path d="M 0.5 0.5 L 20 0.5 L 20 13.5 L 0.5 13.5 Z M 0.5 0.5 "/>
</clipPath>
<clipPath id="clip3">
  <path d="M 13 0.5 L 17 0.5 L 17 4 L 13 4 Z M 13 0.5 "/>
</clipPath>
<clipPath id="clip4">
  <path d="M 11 0.5 L 19 0.5 L 19 7 L 11 7 Z M 11 0.5 "/>
</clipPath>
<clipPath id="clip5">
  <path d="M 11 0.5 L 13 0.5 L 13 13 L 11 13 Z M 11 0.5 "/>
</clipPath>
<clipPath id="clip6">
  <path d="M 8 0.5 L 10 0.5 L 10 13 L 8 13 Z M 8 0.5 "/>
</clipPath>
</defs>
<g id="surface1">
<path style=" stroke:none;fill-rule:nonzero;fill:rgb(100%,100%,98.826599%);fill-opacity:1;" d="M 9.0625 8.492188 L 12.113281 8.492188 L 12.113281 4.085938 L 9.0625 4.085938 Z M 9.0625 8.492188 "/>
<path style="fill:none;stroke-width:7.99998;stroke-linecap:butt;stroke-linejoin:miter;stroke:rgb(0%,0%,0%);stroke-opacity:1;stroke-miterlimit:4;" d="M 114.882812 71.757812 L 200.9375 71.757812 " transform="matrix(0.1,0,0,-0.1,0.5,13.5)"/>
<g clip-path="url(#clip1)" clip-rule="nonzero">
<path style="fill:none;stroke-width:7.99998;stroke-linecap:butt;stroke-linejoin:miter;stroke:rgb(0%,0%,0%);stroke-opacity:1;stroke-miterlimit:4;" d="M 0 71.757812 L 86.054688 71.757812 " transform="matrix(0.1,0,0,-0.1,0.5,13.5)"/>
</g>
<g clip-path="url(#clip2)" clip-rule="nonzero">
<path style="fill:none;stroke-width:7.5;stroke-linecap:butt;stroke-linejoin:miter;stroke:rgb(0%,0%,0%);stroke-opacity:1;stroke-miterlimit:4;" d="M 42.539062 11.914062 L 145.585938 114.257812 " transform="matrix(0.1,0,0,-0.1,0.5,13.5)"/>
</g>
<g clip-path="url(#clip3)" clip-rule="nonzero">
<path style=" stroke:none;fill-rule:evenodd;fill:rgb(0%,0%,0%);fill-opacity:1;" d="M 16.285156 0.855469 L 15.5 3.75 L 13.386719 1.621094 Z M 16.285156 0.855469 "/>
</g>
<g clip-path="url(#clip4)" clip-rule="nonzero">
<path style="fill:none;stroke-width:4;stroke-linecap:butt;stroke-linejoin:miter;stroke:rgb(0%,0%,0%);stroke-opacity:1;stroke-miterlimit:4;" d="M 157.851562 126.445312 L 150 97.5 L 128.867188 118.789062 Z M 157.851562 126.445312 " transform="matrix(0.1,0,0,-0.1,0.5,13.5)"/>
</g>
<g clip-path="url(#clip5)" clip-rule="nonzero">
<path style="fill:none;stroke-width:7.5;stroke-linecap:butt;stroke-linejoin:miter;stroke:rgb(0%,0%,0%);stroke-opacity:1;stroke-miterlimit:4;" d="M 114.0625 130 L 114.0625 10 " transform="matrix(0.1,0,0,-0.1,0.5,13.5)"/>
</g>
<g clip-path="url(#clip6)" clip-rule="nonzero">
<path style="fill:none;stroke-width:7.5;stroke-linecap:butt;stroke-linejoin:miter;stroke:rgb(0%,0%,0%);stroke-opacity:1;stroke-miterlimit:4;" d="M 86.875 130 L 86.875 10 " transform="matrix(0.1,0,0,-0.1,0.5,13.5)"/>
</g>
</g>
</svg>
