<?xml version="1.0" encoding="UTF-8" standalone="no"?>
<!-- Created with Inkscape (http://www.inkscape.org/) -->

<svg
   xmlns:dc="http://purl.org/dc/elements/1.1/"
   xmlns:cc="http://creativecommons.org/ns#"
   xmlns:rdf="http://www.w3.org/1999/02/22-rdf-syntax-ns#"
   xmlns:svg="http://www.w3.org/2000/svg"
   xmlns="http://www.w3.org/2000/svg"
   xmlns:sodipodi="http://sodipodi.sourceforge.net/DTD/sodipodi-0.dtd"
   xmlns:inkscape="http://www.inkscape.org/namespaces/inkscape"
   width="164.0867pt"
   height="97.193192pt"
   id="svg2048"
   sodipodi:version="0.32"
   inkscape:version="0.91 r13725"
   sodipodi:docname="rlccircuit.svg"
   version="1.1">
  <defs
     id="defs2050">
    <marker
       inkscape:isstock="true"
       style="overflow:visible"
       id="marker6452"
       refX="0"
       refY="0"
       orient="auto"
       inkscape:stockid="Arrow2Mend">
      <path
         transform="scale(-0.6,-0.6)"
         d="M 8.7185878,4.0337352 -2.2072895,0.01601326 8.7185884,-4.0017078 c -1.7454984,2.3720609 -1.7354408,5.6174519 -6e-7,8.035443 z"
         style="fill:#000000;fill-opacity:1;fill-rule:evenodd;stroke:#000000;stroke-width:0.625;stroke-linejoin:round;stroke-opacity:1"
         id="path6454"
         inkscape:connector-curvature="0" />
    </marker>
    <marker
       inkscape:stockid="Arrow1Send"
       orient="auto"
       refY="0"
       refX="0"
       id="Arrow1Send"
       style="overflow:visible"
       inkscape:isstock="true">
      <path
         id="path4554"
         d="M 0,0 5,-5 -12.5,0 5,5 0,0 Z"
         style="fill:#000000;fill-opacity:1;fill-rule:evenodd;stroke:#000000;stroke-width:1pt;stroke-opacity:1"
         transform="matrix(-0.2,0,0,-0.2,-1.2,0)"
         inkscape:connector-curvature="0" />
    </marker>
    <marker
       inkscape:stockid="TriangleOutM"
       orient="auto"
       refY="0"
       refX="0"
       id="TriangleOutM"
       style="overflow:visible"
       inkscape:isstock="true">
      <path
         id="path4684"
         d="m 5.77,0 -8.65,5 0,-10 8.65,5 z"
         style="fill:#000000;fill-opacity:1;fill-rule:evenodd;stroke:#000000;stroke-width:1pt;stroke-opacity:1"
         transform="scale(0.4,0.4)"
         inkscape:connector-curvature="0" />
    </marker>
    <marker
       inkscape:stockid="Arrow2Lend"
       orient="auto"
       refY="0"
       refX="0"
       id="Arrow2Lend"
       style="overflow:visible"
       inkscape:isstock="true">
      <path
         id="path4560"
         style="fill:#000000;fill-opacity:1;fill-rule:evenodd;stroke:#000000;stroke-width:0.625;stroke-linejoin:round;stroke-opacity:1"
         d="M 8.7185878,4.0337352 -2.2072895,0.01601326 8.7185884,-4.0017078 c -1.7454984,2.3720609 -1.7354408,5.6174519 -6e-7,8.035443 z"
         transform="matrix(-1.1,0,0,-1.1,-1.1,0)"
         inkscape:connector-curvature="0" />
    </marker>
    <marker
       inkscape:stockid="Arrow1Lend"
       orient="auto"
       refY="0"
       refX="0"
       id="Arrow1Lend"
       style="overflow:visible"
       inkscape:isstock="true">
      <path
         id="path4542"
         d="M 0,0 5,-5 -12.5,0 5,5 0,0 Z"
         style="fill:#000000;fill-opacity:1;fill-rule:evenodd;stroke:#000000;stroke-width:1pt;stroke-opacity:1"
         transform="matrix(-0.8,0,0,-0.8,-10,0)"
         inkscape:connector-curvature="0" />
    </marker>
  </defs>
  <sodipodi:namedview
     id="base"
     pagecolor="#ffffff"
     bordercolor="#666666"
     borderopacity="1.0"
     inkscape:pageopacity="0.0"
     inkscape:pageshadow="2"
     inkscape:zoom="3.9345053"
     inkscape:cx="102.55419"
     inkscape:cy="60.745745"
     inkscape:document-units="px"
     inkscape:current-layer="layer1"
     inkscape:window-width="1319"
     inkscape:window-height="744"
     inkscape:window-x="41"
     inkscape:window-y="24"
     showgrid="false"
     inkscape:window-maximized="1"
     fit-margin-top="10"
     fit-margin-right="10"
     fit-margin-bottom="10"
     fit-margin-left="10" />
  <metadata
     id="metadata2053">
    <rdf:RDF>
      <cc:Work
         rdf:about="">
        <dc:format>image/svg+xml</dc:format>
        <dc:type
           rdf:resource="http://purl.org/dc/dcmitype/StillImage" />
        <dc:title></dc:title>
      </cc:Work>
    </rdf:RDF>
  </metadata>
  <g
     inkscape:label="Layer 1"
     inkscape:groupmode="layer"
     id="layer1"
     transform="translate(-185.08533,-14.23086)">
    <rect
       y="27.23086"
       x="198.08533"
       height="95.491486"
       width="146.80994"
       id="rect5258"
       style="fill:none;fill-opacity:1;stroke:#000000;stroke-width:0.99999994;stroke-miterlimit:4;stroke-dasharray:4.00000013, 4.00000013;stroke-dashoffset:0;stroke-opacity:1" />
    <path
       inkscape:connector-curvature="0"
       id="path5228"
       d="m 239.33925,90.439399 -0.0476,22.886301 118.58802,0.0183"
       style="fill:none;fill-rule:evenodd;stroke:#000000;stroke-width:1px;stroke-linecap:butt;stroke-linejoin:miter;stroke-opacity:1"
       sodipodi:nodetypes="ccc" />
    <text
       xml:space="preserve"
       style="font-style:normal;font-weight:normal;font-size:15px;line-height:125%;font-family:sans-serif;letter-spacing:0px;word-spacing:0px;fill:#000000;fill-opacity:1;stroke:none;stroke-width:1px;stroke-linecap:butt;stroke-linejoin:miter;stroke-opacity:1"
       x="206.08168"
       y="83.802917"
       id="text5380"
       sodipodi:linespacing="125%"><tspan
         sodipodi:role="line"
         id="tspan5382"
         x="206.08168"
         y="83.802917">V<tspan
   style="font-size:64.99999762%;baseline-shift:sub"
   id="tspan4250">in</tspan></tspan></text>
    <circle
       transform="matrix(0,1,-1,0,0,0)"
       id="circle4267"
       style="opacity:1;fill:none;fill-opacity:1;stroke:#000000;stroke-width:1;stroke-linecap:round;stroke-linejoin:round;stroke-miterlimit:4;stroke-dasharray:none;stroke-dashoffset:0;stroke-opacity:1"
       cx="46.255512"
       cy="-359.32687"
       r="1.3250313" />
    <circle
       transform="matrix(0,1,-1,0,0,0)"
       id="circle4269"
       style="opacity:1;fill:none;fill-opacity:1;stroke:#000000;stroke-width:1;stroke-linecap:round;stroke-linejoin:round;stroke-miterlimit:4;stroke-dasharray:none;stroke-dashoffset:0;stroke-opacity:1"
       cx="113.34397"
       cy="-359.32687"
       r="1.3250313" />
    <circle
       style="opacity:1;fill:#000000;fill-opacity:1;stroke:#000000;stroke-width:1;stroke-linecap:round;stroke-linejoin:round;stroke-miterlimit:4;stroke-dasharray:none;stroke-dashoffset:0;stroke-opacity:1"
       id="path2099-6"
       cx="321.49805"
       cy="46.255512"
       r="1.3250313" />
    <text
       xml:space="preserve"
       style="font-style:normal;font-weight:normal;font-size:15px;line-height:125%;font-family:sans-serif;letter-spacing:0px;word-spacing:0px;fill:#000000;fill-opacity:1;stroke:none;stroke-width:1px;stroke-linecap:butt;stroke-linejoin:miter;stroke-opacity:1"
       x="327.84818"
       y="85.501945"
       id="text5741"
       sodipodi:linespacing="125%"><tspan
         sodipodi:role="line"
         id="tspan5743"
         x="327.84818"
         y="85.501945">R<tspan
   style="font-size:64.99999762%;baseline-shift:sub"
   id="tspan5745" /></tspan></text>
    <circle
       r="1.3250313"
       cy="113.34397"
       cx="321.49805"
       id="circle4219"
       style="opacity:1;fill:#000000;fill-opacity:1;stroke:#000000;stroke-width:1;stroke-linecap:round;stroke-linejoin:round;stroke-miterlimit:4;stroke-dasharray:none;stroke-dashoffset:0;stroke-opacity:1" />
    <text
       sodipodi:linespacing="125%"
       id="text4254"
       y="83.932915"
       x="351.70078"
       style="font-style:normal;font-weight:normal;font-size:15px;line-height:125%;font-family:sans-serif;letter-spacing:0px;word-spacing:0px;fill:#000000;fill-opacity:1;stroke:none;stroke-width:1px;stroke-linecap:butt;stroke-linejoin:miter;stroke-opacity:1"
       xml:space="preserve"><tspan
         y="83.932915"
         x="351.70078"
         id="tspan4256"
         sodipodi:role="line">V<tspan
   style="font-size:64.99999762%;baseline-shift:sub"
   id="tspan4260">out</tspan></tspan></text>
    <g
       id="g4356"
       transform="translate(187.95823,-43.048304)">
      <circle
         id="path2544"
         style="opacity:1;fill:#ffffff;fill-opacity:1;stroke:#000000;stroke-width:1;stroke-linecap:round;stroke-linejoin:round;stroke-miterlimit:4;stroke-dasharray:none;stroke-dashoffset:0;stroke-opacity:1"
         cx="51.333439"
         cy="123.08272"
         r="10.306325" />
      <path
         sodipodi:nodetypes="cccccccccccccccccccccccccccccccccccccccccccccccccccccccccccccccccccccccccccccccccccccccccccccccccccc"
         d="m 44.62279,123.08279 0.12955,-0.23022 0.12955,-0.21378 0.15546,-0.21379 0.12955,-0.23023 0.12955,-0.21377 0.12955,-0.21379 0.15545,-0.19734 0.12955,-0.19734 0.12955,-0.19733 0.12955,-0.18089 0.15546,-0.1809 0.12955,-0.16444 0.12955,-0.14801 0.12955,-0.148 0.12955,-0.13156 0.15546,-0.13155 0.12954,-0.11512 0.12955,-0.0987 0.12955,-0.0822 0.15546,-0.0658 0.12955,-0.0658 0.12955,-0.0493 0.12955,-0.0328 0.15546,-0.0164 0.12955,0 0.12955,0.0164 0.12954,0.0164 0.15546,0.0493 0.12955,0.0493 0.12955,0.0658 0.12955,0.0822 0.12955,0.0822 0.15546,0.11511 0.12955,0.11511 0.12955,0.13155 0.12955,0.13157 0.15545,0.14799 0.12955,0.16445 0.12955,0.1809 0.12955,0.18089 0.15546,0.18089 0.12955,0.19734 0.12955,0.19733 0.12955,0.21379 0.12955,0.21379 0.15546,0.21377 0.12954,0.21378 0.12955,0.23023 0.12955,0.21379 0.15546,0.23022 0.12955,0.21378 0.12955,0.23024 0.12955,0.21378 0.15546,0.21377 0.12955,0.21379 0.12955,0.21378 0.12955,0.19734 0.12954,0.19733 0.15546,0.1809 0.12955,0.18089 0.12955,0.1809 0.12955,0.16444 0.15546,0.148 0.12955,0.13156 0.12955,0.13156 0.12955,0.11512 0.15546,0.11511 0.12954,0.0822 0.12955,0.0822 0.12955,0.0658 0.12955,0.0493 0.15546,0.0493 0.12955,0.0164 0.12955,0.0164 0.12955,0 0.15546,-0.0164 0.12955,-0.0328 0.12954,-0.0493 0.12955,-0.0658 0.15546,-0.0658 0.12955,-0.0822 0.12955,-0.0987 0.12955,-0.11512 0.15546,-0.13156 0.12955,-0.13156 0.12955,-0.148 0.12955,-0.148 0.12954,-0.16445 0.15546,-0.18089 0.12955,-0.1809 0.12955,-0.19733 0.12955,-0.19734 0.15546,-0.19734 0.12955,-0.21379 0.12955,-0.21378 0.12955,-0.23022 0.15546,-0.21378 0.12955,-0.21378 0.12954,-0.23024"
         id="path1804"
         style="color:#ff0000;fill:none;stroke:#000000;stroke-width:0.99999911;stroke-miterlimit:4;stroke-dasharray:none;stroke-opacity:1"
         inkscape:connector-curvature="0" />
      <text
         xml:space="preserve"
         style="font-style:normal;font-weight:normal;font-size:7.5px;line-height:125%;font-family:sans-serif;letter-spacing:0px;word-spacing:0px;fill:#000000;fill-opacity:1;stroke:none;stroke-width:1px;stroke-linecap:butt;stroke-linejoin:miter;stroke-opacity:1"
         x="48.215679"
         y="118.77913"
         id="text4296"
         sodipodi:linespacing="125%"><tspan
           sodipodi:role="line"
           id="tspan4298"
           x="48.215679"
           y="118.77913">+</tspan></text>
      <text
         xml:space="preserve"
         style="font-style:normal;font-weight:normal;font-size:9.87379265px;line-height:125%;font-family:sans-serif;letter-spacing:0px;word-spacing:0px;fill:#000000;fill-opacity:1;stroke:none;stroke-width:1px;stroke-linecap:butt;stroke-linejoin:miter;stroke-opacity:1"
         x="37.229244"
         y="173.88379"
         id="text4300"
         sodipodi:linespacing="125%"
         transform="scale(1.3165056,0.75958659)"><tspan
           sodipodi:role="line"
           id="tspan4302"
           x="37.229244"
           y="173.88379">-</tspan></text>
    </g>
    <g
       id="g4297"
       transform="translate(-1.7374477,0)">
      <rect
         transform="matrix(0,-1,1,0,0,0)"
         y="293.2424"
         x="-49.958824"
         height="5.0458946"
         width="7.2883377"
         id="rect1464"
         style="opacity:1;fill:#fffffc;fill-opacity:1;stroke:none;stroke-width:1.69728863;stroke-linecap:round;stroke-linejoin:round;stroke-miterlimit:4;stroke-dasharray:none;stroke-dashoffset:0;stroke-opacity:1" />
      <path
         sodipodi:nodetypes="cc"
         id="path1466"
         d="m 293.58547,56.00551 c 0,-24 0,-19.5 0,-19.5"
         style="fill:none;fill-opacity:0.75;fill-rule:evenodd;stroke:#000000;stroke-width:1px;stroke-linecap:butt;stroke-linejoin:miter;stroke-opacity:1"
         inkscape:connector-curvature="0" />
      <path
         sodipodi:nodetypes="cc"
         id="path1473"
         d="m 298.08132,56.00551 c 0,-24 0,-19.5 0,-19.5"
         style="fill:none;fill-opacity:0.75;fill-rule:evenodd;stroke:#000000;stroke-width:1px;stroke-linecap:butt;stroke-linejoin:miter;stroke-opacity:1"
         inkscape:connector-curvature="0" />
    </g>
    <path
       sodipodi:nodetypes="cc"
       inkscape:connector-curvature="0"
       id="path4485"
       d="m 358.27444,46.25551 -61.62182,0"
       style="fill:none;fill-rule:evenodd;stroke:#000000;stroke-width:1px;stroke-linecap:butt;stroke-linejoin:miter;stroke-opacity:1" />
    <g
       id="g4468"
       transform="matrix(0,1,1,0,144.74304,-75.895838)">
      <g
         transform="translate(-152.54078,51.786986)"
         id="g1602">
        <rect
           style="opacity:1;fill:#ffffff;fill-opacity:1;stroke:#ffffff;stroke-width:1.25000012;stroke-linecap:round;stroke-linejoin:round;stroke-miterlimit:4;stroke-dasharray:none;stroke-dashoffset:0;stroke-opacity:1"
           id="rect2773"
           width="6.1092253"
           height="20.673464"
           x="268.96851"
           y="59.766499" />
        <g
           id="g2763"
           transform="matrix(0,-1,1.306428,0,192.6765,341.9708)">
          <path
             inkscape:connector-curvature="0"
             sodipodi:nodetypes="cc"
             id="path2703"
             d="m 261.31293,63.130143 c 0,-5.049225 2.6952,-4.757193 2.6952,-4.757193"
             style="fill:none;fill-opacity:0.75;fill-rule:evenodd;stroke:#000000;stroke-width:1.09362209;stroke-linecap:butt;stroke-linejoin:miter;stroke-miterlimit:4;stroke-dasharray:none;stroke-opacity:1" />
          <path
             inkscape:connector-curvature="0"
             sodipodi:nodetypes="cc"
             id="path2721"
             d="m 266.62072,63.155873 c 0,-5.049225 -2.6952,-4.757193 -2.6952,-4.757193"
             style="fill:none;fill-opacity:0.75;fill-rule:evenodd;stroke:#000000;stroke-width:1.09362209;stroke-linecap:butt;stroke-linejoin:miter;stroke-miterlimit:4;stroke-dasharray:none;stroke-opacity:1" />
          <path
             inkscape:connector-curvature="0"
             sodipodi:nodetypes="cc"
             id="path2739"
             d="m 266.54707,63.131453 c 0,-5.049225 2.6952,-4.757193 2.6952,-4.757193"
             style="fill:none;fill-opacity:0.75;fill-rule:evenodd;stroke:#000000;stroke-width:1.09362209;stroke-linecap:butt;stroke-linejoin:miter;stroke-miterlimit:4;stroke-dasharray:none;stroke-opacity:1" />
          <path
             inkscape:connector-curvature="0"
             sodipodi:nodetypes="cc"
             id="path2741"
             d="m 271.85486,63.157183 c 0,-5.049225 -2.6952,-4.757193 -2.6952,-4.757193"
             style="fill:none;fill-opacity:0.75;fill-rule:evenodd;stroke:#000000;stroke-width:1.09362209;stroke-linecap:butt;stroke-linejoin:miter;stroke-miterlimit:4;stroke-dasharray:none;stroke-opacity:1" />
          <path
             inkscape:connector-curvature="0"
             sodipodi:nodetypes="cc"
             id="path2751"
             d="m 271.77972,63.131453 c 0,-5.049225 2.6952,-4.757193 2.6952,-4.757193"
             style="fill:none;fill-opacity:0.75;fill-rule:evenodd;stroke:#000000;stroke-width:1.09362209;stroke-linecap:butt;stroke-linejoin:miter;stroke-miterlimit:4;stroke-dasharray:none;stroke-opacity:1" />
          <path
             inkscape:connector-curvature="0"
             sodipodi:nodetypes="cc"
             id="path2753"
             d="m 277.08751,63.157183 c 0,-5.049225 -2.6952,-4.757193 -2.6952,-4.757193"
             style="fill:none;fill-opacity:0.75;fill-rule:evenodd;stroke:#000000;stroke-width:1.09362209;stroke-linecap:butt;stroke-linejoin:miter;stroke-miterlimit:4;stroke-dasharray:none;stroke-opacity:1" />
          <path
             inkscape:connector-curvature="0"
             sodipodi:nodetypes="cc"
             id="path2755"
             d="m 277.1058,63.131453 c 0,-5.049225 2.6952,-4.757193 2.6952,-4.757193"
             style="fill:none;fill-opacity:0.75;fill-rule:evenodd;stroke:#000000;stroke-width:1.09362209;stroke-linecap:butt;stroke-linejoin:miter;stroke-miterlimit:4;stroke-dasharray:none;stroke-opacity:1" />
          <path
             inkscape:connector-curvature="0"
             sodipodi:nodetypes="cc"
             id="path2757"
             d="m 282.41359,63.157183 c 0,-5.049225 -2.6952,-4.757193 -2.6952,-4.757193"
             style="fill:none;fill-opacity:0.75;fill-rule:evenodd;stroke:#000000;stroke-width:1.09362209;stroke-linecap:butt;stroke-linejoin:miter;stroke-miterlimit:4;stroke-dasharray:none;stroke-opacity:1" />
        </g>
      </g>
      <path
         style="fill:none;fill-rule:evenodd;stroke:#000000;stroke-width:1.00000012px;stroke-linecap:butt;stroke-linejoin:miter;stroke-opacity:1"
         d="m 122.14957,131.89789 0,15.01097"
         id="path4440"
         inkscape:connector-curvature="0"
         sodipodi:nodetypes="cc" />
    </g>
    <text
       xml:space="preserve"
       style="font-style:normal;font-weight:normal;font-size:15px;line-height:125%;font-family:sans-serif;letter-spacing:0px;word-spacing:0px;fill:#000000;fill-opacity:1;stroke:none;stroke-width:1px;stroke-linecap:butt;stroke-linejoin:miter;stroke-opacity:1"
       x="261.81952"
       y="61.041348"
       id="text5218"
       sodipodi:linespacing="125%"><tspan
         sodipodi:role="line"
         id="tspan5220"
         x="261.81952"
         y="61.041348">L</tspan></text>
    <text
       xml:space="preserve"
       style="font-style:normal;font-weight:normal;font-size:15px;line-height:125%;font-family:sans-serif;letter-spacing:0px;word-spacing:0px;fill:#000000;fill-opacity:1;stroke:none;stroke-width:1px;stroke-linecap:butt;stroke-linejoin:miter;stroke-opacity:1"
       x="288.84448"
       y="70.134026"
       id="text5222"
       sodipodi:linespacing="125%"><tspan
         sodipodi:role="line"
         id="tspan5224"
         x="288.84448"
         y="70.134026">C</tspan></text>
    <path
       style="fill:none;fill-rule:evenodd;stroke:#000000;stroke-width:1px;stroke-linecap:butt;stroke-linejoin:miter;stroke-opacity:1"
       d="m 239.29167,69.659167 -0.003,-23.40603 16.78125,5.85e-4"
       id="path4219"
       inkscape:connector-curvature="0"
       sodipodi:nodetypes="ccc" />
    <path
       style="fill:none;fill-rule:evenodd;stroke:#000000;stroke-width:1px;stroke-linecap:butt;stroke-linejoin:miter;stroke-opacity:1"
       d="m 321.49805,45.982435 -0.0126,24.046032 3.61665,1.862687 -7.26176,3.29706 7.31546,3.32141 -7.22579,3.28073 7.08494,3.21676 -7.10478,3.22576 3.55928,1.83067 0,23.247716"
       id="path4242"
       inkscape:connector-curvature="0"
       sodipodi:nodetypes="ccccccccc" />
  </g>
</svg>
