<?xml version="1.0" encoding="UTF-8" standalone="no"?>
<!-- Created with Inkscape (http://www.inkscape.org/) -->

<svg
   xmlns:dc="http://purl.org/dc/elements/1.1/"
   xmlns:cc="http://creativecommons.org/ns#"
   xmlns:rdf="http://www.w3.org/1999/02/22-rdf-syntax-ns#"
   xmlns:svg="http://www.w3.org/2000/svg"
   xmlns="http://www.w3.org/2000/svg"
   xmlns:sodipodi="http://sodipodi.sourceforge.net/DTD/sodipodi-0.dtd"
   xmlns:inkscape="http://www.inkscape.org/namespaces/inkscape"
   width="1000.0000pt"
   height="440.00000pt"
   id="svg1445"
   sodipodi:version="0.32"
   inkscape:version="0.91 r13725"
   sodipodi:docname="rlcres.svg"
   version="1.1">
  <defs
     id="defs1447">
    <marker
       inkscape:stockid="Arrow2Mend"
       orient="auto"
       refY="0"
       refX="0"
       id="Arrow2Mend"
       style="overflow:visible">
      <path
         inkscape:connector-curvature="0"
         sodipodi:nodetypes="cccc"
         id="path2262"
         style="font-size:12px;fill-rule:evenodd;stroke-width:0.625;stroke-linejoin:round"
         d="M 8.7185878,4.0337352 -2.2072895,0.01601326 8.7185884,-4.0017078 c -1.7454984,2.3720609 -1.7354408,5.6174519 -6e-7,8.035443 z"
         transform="matrix(-0.6,0,0,-0.6,3,0)" />
    </marker>
    <marker
       inkscape:stockid="Arrow2Mend"
       orient="auto"
       refY="0"
       refX="0"
       id="marker5258"
       style="overflow:visible">
      <path
         inkscape:connector-curvature="0"
         sodipodi:nodetypes="cccc"
         id="path5260"
         style="font-size:12px;fill-rule:evenodd;stroke-width:0.625;stroke-linejoin:round"
         d="M 8.7185878,4.0337352 -2.2072895,0.01601326 8.7185884,-4.0017078 c -1.7454984,2.3720609 -1.7354408,5.6174519 -6e-7,8.035443 z"
         transform="matrix(-0.6,0,0,-0.6,3,0)" />
    </marker>
  </defs>
  <sodipodi:namedview
     id="base"
     pagecolor="#ffffff"
     bordercolor="#666666"
     borderopacity="1.0"
     inkscape:pageopacity="0.0"
     inkscape:pageshadow="2"
     inkscape:zoom="0.6456"
     inkscape:cx="625"
     inkscape:cy="275"
     inkscape:document-units="px"
     inkscape:current-layer="layer3"
     inkscape:window-width="1319"
     inkscape:window-height="744"
     inkscape:window-x="41"
     inkscape:window-y="24"
     showgrid="false"
     inkscape:window-maximized="1" />
  <metadata
     id="metadata1450">
    <rdf:RDF>
      <cc:Work
         rdf:about="">
        <dc:format>image/svg+xml</dc:format>
        <dc:type
           rdf:resource="http://purl.org/dc/dcmitype/StillImage" />
      </cc:Work>
    </rdf:RDF>
  </metadata>
  <g
     inkscape:label="Layer 1"
     inkscape:groupmode="layer"
     id="layer1">
    <path
       inkscape:connector-curvature="0"
       style="color:#808080;fill:none;stroke:currentColor;stroke-width:1"
       id="path1513"
       d="m 654.38611,454.55801 509.99999,0" />
    <path
       inkscape:connector-curvature="0"
       style="color:#000000;fill:none;stroke:currentColor;stroke-width:1"
       id="path1515"
       d="m 654.38611,454.55801 9,0 m 500.99999,0 -9,0" />
    <path
       inkscape:connector-curvature="0"
       style="color:#808080;fill:none;stroke:currentColor;stroke-width:1;stroke-miterlimit:4;stroke-dasharray:1, 3;stroke-dashoffset:0"
       id="path1517"
       d="m 654.38611,403.55801 509.99999,0" />
    <path
       inkscape:connector-curvature="0"
       style="color:#000000;fill:none;stroke:currentColor;stroke-width:1"
       id="path1519"
       d="m 654.38611,403.55801 9,0 m 500.99999,0 -9,0" />
    <path
       inkscape:connector-curvature="0"
       style="color:#808080;fill:none;stroke:currentColor;stroke-width:1;stroke-miterlimit:4;stroke-dasharray:1, 3;stroke-dashoffset:0"
       id="path1521"
       d="m 654.38611,352.55801 509.99999,0" />
    <path
       inkscape:connector-curvature="0"
       style="color:#000000;fill:none;stroke:currentColor;stroke-width:1"
       id="path1523"
       d="m 654.38611,352.55801 9,0 m 500.99999,0 -9,0" />
    <path
       inkscape:connector-curvature="0"
       style="color:#808080;fill:none;stroke:currentColor;stroke-width:1;stroke-miterlimit:4;stroke-dasharray:1, 3;stroke-dashoffset:0"
       id="path1525"
       d="m 654.38611,301.55801 509.99999,0" />
    <path
       inkscape:connector-curvature="0"
       style="color:#000000;fill:none;stroke:currentColor;stroke-width:1"
       id="path1527"
       d="m 654.38611,301.55801 9,0 m 500.99999,0 -9,0" />
    <path
       inkscape:connector-curvature="0"
       style="color:#808080;fill:none;stroke:currentColor;stroke-width:1;stroke-miterlimit:4;stroke-dasharray:1, 3;stroke-dashoffset:0"
       id="path1529"
       d="m 654.38611,250.55801 509.99999,0" />
    <path
       inkscape:connector-curvature="0"
       style="color:#000000;fill:none;stroke:currentColor;stroke-width:1"
       id="path1531"
       d="m 654.38611,250.55801 9,0 m 500.99999,0 -9,0" />
    <path
       inkscape:connector-curvature="0"
       style="color:#808080;fill:none;stroke:currentColor;stroke-width:1;stroke-miterlimit:4;stroke-dasharray:1, 3;stroke-dashoffset:0"
       id="path1533"
       d="m 654.38611,199.55801 509.99999,0" />
    <path
       inkscape:connector-curvature="0"
       style="color:#000000;fill:none;stroke:currentColor;stroke-width:1"
       id="path1535"
       d="m 654.38611,199.55801 9,0 m 500.99999,0 -9,0" />
    <path
       inkscape:connector-curvature="0"
       style="color:#808080;fill:none;stroke:currentColor;stroke-width:1;stroke-miterlimit:4;stroke-dasharray:1, 3;stroke-dashoffset:0"
       id="path1537"
       d="m 654.38611,148.55801 509.99999,0" />
    <path
       inkscape:connector-curvature="0"
       style="color:#000000;fill:none;stroke:currentColor;stroke-width:1"
       id="path1539"
       d="m 654.38611,148.55801 9,0 m 500.99999,0 -9,0" />
    <path
       inkscape:connector-curvature="0"
       style="color:#808080;fill:none;stroke:currentColor;stroke-width:1;stroke-miterlimit:4;stroke-dasharray:1, 3;stroke-dashoffset:0"
       id="path1541"
       d="m 654.38611,97.558014 509.99999,0" />
    <path
       inkscape:connector-curvature="0"
       style="color:#000000;fill:none;stroke:currentColor;stroke-width:1"
       id="path1543"
       d="m 654.38611,97.558014 9,0 m 500.99999,0 -9,0" />
    <path
       inkscape:connector-curvature="0"
       style="color:#808080;fill:none;stroke:currentColor;stroke-width:1"
       id="path1545"
       d="m 654.38611,46.558014 509.99999,0" />
    <path
       inkscape:connector-curvature="0"
       style="color:#000000;fill:none;stroke:currentColor;stroke-width:1"
       id="path1547"
       d="m 654.38611,46.558014 9,0 m 500.99999,0 -9,0" />
    <path
       inkscape:connector-curvature="0"
       style="color:#808080;fill:none;stroke:currentColor;stroke-width:1"
       id="path1549"
       d="m 654.38611,454.55801 0,-407.999996" />
    <path
       inkscape:connector-curvature="0"
       style="color:#000000;fill:none;stroke:currentColor;stroke-width:1"
       id="path1551"
       d="m 654.38611,454.55801 0,-9 m 0,-398.999996 0,9" />
    <path
       inkscape:connector-curvature="0"
       style="color:#808080;fill:none;stroke:currentColor;stroke-width:1;stroke-miterlimit:4;stroke-dasharray:1, 3;stroke-dashoffset:0"
       id="path1553"
       d="m 705.38611,454.55801 0,-407.999996" />
    <path
       inkscape:connector-curvature="0"
       style="color:#000000;fill:none;stroke:currentColor;stroke-width:1"
       id="path1555"
       d="m 705.38611,454.55801 0,-9 m 0,-398.999996 0,9" />
    <path
       inkscape:connector-curvature="0"
       style="color:#808080;fill:none;stroke:currentColor;stroke-width:1;stroke-miterlimit:4;stroke-dasharray:1, 3;stroke-dashoffset:0"
       id="path1557"
       d="m 756.38611,454.55801 0,-407.999996" />
    <path
       inkscape:connector-curvature="0"
       style="color:#000000;fill:none;stroke:currentColor;stroke-width:1"
       id="path1559"
       d="m 756.38611,454.55801 0,-9 m 0,-398.999996 0,9" />
    <path
       inkscape:connector-curvature="0"
       style="color:#808080;fill:none;stroke:currentColor;stroke-width:1;stroke-miterlimit:4;stroke-dasharray:1, 3;stroke-dashoffset:0"
       id="path1561"
       d="m 807.38611,454.55801 0,-407.999996" />
    <path
       inkscape:connector-curvature="0"
       style="color:#000000;fill:none;stroke:currentColor;stroke-width:1"
       id="path1563"
       d="m 807.38611,454.55801 0,-9 m 0,-398.999996 0,9" />
    <path
       inkscape:connector-curvature="0"
       style="color:#808080;fill:none;stroke:currentColor;stroke-width:1;stroke-miterlimit:4;stroke-dasharray:1, 3;stroke-dashoffset:0"
       id="path1565"
       d="m 858.38611,454.55801 0,-407.999996" />
    <path
       inkscape:connector-curvature="0"
       style="color:#000000;fill:none;stroke:currentColor;stroke-width:1"
       id="path1567"
       d="m 858.38611,454.55801 0,-9 m 0,-398.999996 0,9" />
    <path
       inkscape:connector-curvature="0"
       style="color:#808080;fill:none;stroke:currentColor;stroke-width:1;stroke-miterlimit:4;stroke-dasharray:1, 3;stroke-dashoffset:0"
       id="path1569"
       d="m 909.38611,454.55801 0,-407.999996" />
    <path
       inkscape:connector-curvature="0"
       style="color:#000000;fill:none;stroke:currentColor;stroke-width:1"
       id="path1571"
       d="m 909.38611,454.55801 0,-9 m 0,-398.999996 0,9" />
    <path
       inkscape:connector-curvature="0"
       style="color:#808080;fill:none;stroke:currentColor;stroke-width:1;stroke-miterlimit:4;stroke-dasharray:1, 3;stroke-dashoffset:0"
       id="path1573"
       d="m 960.38606,454.55801 0,-407.999996" />
    <path
       inkscape:connector-curvature="0"
       style="color:#000000;fill:none;stroke:currentColor;stroke-width:1"
       id="path1575"
       d="m 960.38606,454.55801 0,-9 m 0,-398.999996 0,9" />
    <path
       inkscape:connector-curvature="0"
       style="color:#808080;fill:none;stroke:currentColor;stroke-width:1;stroke-miterlimit:4;stroke-dasharray:1, 3;stroke-dashoffset:0"
       id="path1577"
       d="m 1011.3861,454.55801 0,-407.999996" />
    <path
       inkscape:connector-curvature="0"
       style="color:#000000;fill:none;stroke:currentColor;stroke-width:1"
       id="path1579"
       d="m 1011.3861,454.55801 0,-9 m 0,-398.999996 0,9" />
    <path
       inkscape:connector-curvature="0"
       style="color:#808080;fill:none;stroke:currentColor;stroke-width:1;stroke-miterlimit:4;stroke-dasharray:1, 3;stroke-dashoffset:0"
       id="path1581"
       d="m 1062.3861,454.55801 0,-407.999996" />
    <path
       inkscape:connector-curvature="0"
       style="color:#000000;fill:none;stroke:currentColor;stroke-width:1"
       id="path1583"
       d="m 1062.3861,454.55801 0,-9 m 0,-398.999996 0,9" />
    <path
       inkscape:connector-curvature="0"
       style="color:#808080;fill:none;stroke:currentColor;stroke-width:1;stroke-miterlimit:4;stroke-dasharray:1, 3;stroke-dashoffset:0"
       id="path1585"
       d="m 1113.3861,454.55801 0,-407.999996" />
    <path
       inkscape:connector-curvature="0"
       style="color:#000000;fill:none;stroke:currentColor;stroke-width:1"
       id="path1587"
       d="m 1113.3861,454.55801 0,-9 m 0,-398.999996 0,9" />
    <path
       inkscape:connector-curvature="0"
       style="color:#808080;fill:none;stroke:currentColor;stroke-width:1"
       id="path1589"
       d="m 1164.3861,454.55801 0,-407.999996" />
    <path
       inkscape:connector-curvature="0"
       style="color:#000000;fill:none;stroke:currentColor;stroke-width:1"
       id="path1591"
       d="m 1164.3861,454.55801 0,-9 m 0,-398.999996 0,9" />
    <path
       inkscape:connector-curvature="0"
       style="color:#000000;fill:none;stroke:currentColor;stroke-width:1"
       id="path1593"
       d="m 654.38611,454.55801 509.99999,0 0,-407.999996 -509.99999,0 0,407.999996" />
    <path
       inkscape:connector-curvature="0"
       style="color:#000000;fill:none;stroke:currentColor;stroke-width:3;stroke-miterlimit:4;stroke-dasharray:none"
       id="path1595"
       d="m 654.38611,454.55801 509.99999,0 0,-407.999996 -509.99999,0 0,407.999996" />
    <path
       inkscape:connector-curvature="0"
       style="fill:none;fill-opacity:0.75;fill-rule:evenodd;stroke:#ff0000;stroke-width:2;stroke-linecap:butt;stroke-linejoin:miter;stroke-miterlimit:4;stroke-dasharray:none;stroke-opacity:1"
       d="M 687.51945,423.35801 1131.2528,76.691347"
       id="path5078" />
    <g
       style="color:#000000;fill:none;stroke:currentColor;stroke-width:1"
       id="g22"
       transform="translate(-1.724588,0.09873659)" />
    <path
       inkscape:connector-curvature="0"
       style="color:#808080;fill:none;stroke:currentColor;stroke-width:1"
       id="path26"
       d="m 60.804871,454.63348 509.999999,0" />
    <path
       inkscape:connector-curvature="0"
       style="color:#000000;fill:none;stroke:currentColor;stroke-width:1"
       id="path30"
       d="m 60.804871,454.63348 9,0 m 500.999999,0 -9,0" />
    <path
       inkscape:connector-curvature="0"
       style="color:#808080;fill:none;stroke:currentColor;stroke-width:1;stroke-miterlimit:4;stroke-dasharray:1, 3;stroke-dashoffset:0"
       id="path38"
       d="m 60.804871,403.63348 509.999999,0" />
    <path
       inkscape:connector-curvature="0"
       style="color:#000000;fill:none;stroke:currentColor;stroke-width:1"
       id="path42"
       d="m 60.804871,403.63348 9,0 m 500.999999,0 -9,0" />
    <path
       inkscape:connector-curvature="0"
       style="color:#808080;fill:none;stroke:currentColor;stroke-width:1;stroke-miterlimit:4;stroke-dasharray:1, 3;stroke-dashoffset:0"
       id="path50"
       d="m 60.804871,352.63348 509.999999,0" />
    <path
       inkscape:connector-curvature="0"
       style="color:#000000;fill:none;stroke:currentColor;stroke-width:1"
       id="path54"
       d="m 60.804871,352.63348 9,0 m 500.999999,0 -9,0" />
    <path
       inkscape:connector-curvature="0"
       style="color:#808080;fill:none;stroke:currentColor;stroke-width:1;stroke-miterlimit:4;stroke-dasharray:1, 3;stroke-dashoffset:0"
       id="path62"
       d="m 60.804871,301.63348 509.999999,0" />
    <path
       inkscape:connector-curvature="0"
       style="color:#000000;fill:none;stroke:currentColor;stroke-width:1"
       id="path66"
       d="m 60.804871,301.63348 9,0 m 500.999999,0 -9,0" />
    <path
       inkscape:connector-curvature="0"
       style="color:#808080;fill:none;stroke:currentColor;stroke-width:1;stroke-miterlimit:4;stroke-dasharray:1, 3;stroke-dashoffset:0"
       id="path74"
       d="m 60.804871,250.63348 509.999999,0" />
    <path
       inkscape:connector-curvature="0"
       style="color:#000000;fill:none;stroke:currentColor;stroke-width:1"
       id="path78"
       d="m 60.804871,250.63348 9,0 m 500.999999,0 -9,0" />
    <path
       inkscape:connector-curvature="0"
       style="color:#808080;fill:none;stroke:currentColor;stroke-width:1;stroke-miterlimit:4;stroke-dasharray:1, 3;stroke-dashoffset:0"
       id="path86"
       d="m 60.804871,199.63347 509.999999,0" />
    <path
       inkscape:connector-curvature="0"
       style="color:#000000;fill:none;stroke:currentColor;stroke-width:1"
       id="path90"
       d="m 60.804871,199.63347 9,0 m 500.999999,0 -9,0" />
    <path
       inkscape:connector-curvature="0"
       style="color:#808080;fill:none;stroke:currentColor;stroke-width:1;stroke-miterlimit:4;stroke-dasharray:1, 3;stroke-dashoffset:0"
       id="path98"
       d="m 60.804871,148.63347 509.999999,0" />
    <path
       inkscape:connector-curvature="0"
       style="color:#000000;fill:none;stroke:currentColor;stroke-width:1"
       id="path102"
       d="m 60.804871,148.63347 9,0 m 500.999999,0 -9,0" />
    <path
       inkscape:connector-curvature="0"
       style="color:#808080;fill:none;stroke:currentColor;stroke-width:1;stroke-miterlimit:4;stroke-dasharray:1, 3;stroke-dashoffset:0"
       id="path110"
       d="m 60.804871,97.633474 509.999999,0" />
    <path
       inkscape:connector-curvature="0"
       style="color:#000000;fill:none;stroke:currentColor;stroke-width:1"
       id="path114"
       d="m 60.804871,97.633474 9,0 m 500.999999,0 -9,0" />
    <path
       inkscape:connector-curvature="0"
       style="color:#808080;fill:none;stroke:currentColor;stroke-width:1"
       id="path122"
       d="m 60.804871,46.633474 509.999999,0" />
    <path
       inkscape:connector-curvature="0"
       style="color:#000000;fill:none;stroke:currentColor;stroke-width:1"
       id="path126"
       d="m 60.804871,46.633474 9,0 m 500.999999,0 -9,0" />
    <path
       inkscape:connector-curvature="0"
       style="color:#808080;fill:none;stroke:currentColor;stroke-width:1"
       id="path134"
       d="m 60.804871,454.63348 0,-408.000006" />
    <path
       inkscape:connector-curvature="0"
       style="color:#000000;fill:none;stroke:currentColor;stroke-width:1"
       id="path138"
       d="m 60.804871,454.63348 0,-9 m 0,-399.000006 0,9" />
    <path
       inkscape:connector-curvature="0"
       style="color:#808080;fill:none;stroke:currentColor;stroke-width:1;stroke-miterlimit:4;stroke-dasharray:1, 3;stroke-dashoffset:0"
       id="path146"
       d="m 111.80487,454.63348 0,-408.000006" />
    <path
       inkscape:connector-curvature="0"
       style="color:#000000;fill:none;stroke:currentColor;stroke-width:1"
       id="path150"
       d="m 111.80487,454.63348 0,-9 m 0,-399.000006 0,9" />
    <path
       inkscape:connector-curvature="0"
       style="color:#808080;fill:none;stroke:currentColor;stroke-width:1;stroke-miterlimit:4;stroke-dasharray:1, 3;stroke-dashoffset:0"
       id="path158"
       d="m 162.80487,454.63348 0,-408.000006" />
    <path
       inkscape:connector-curvature="0"
       style="color:#000000;fill:none;stroke:currentColor;stroke-width:1"
       id="path162"
       d="m 162.80487,454.63348 0,-9 m 0,-399.000006 0,9" />
    <path
       inkscape:connector-curvature="0"
       style="color:#808080;fill:none;stroke:currentColor;stroke-width:1;stroke-miterlimit:4;stroke-dasharray:1, 3;stroke-dashoffset:0"
       id="path170"
       d="m 213.80487,454.63348 0,-408.000006" />
    <path
       inkscape:connector-curvature="0"
       style="color:#000000;fill:none;stroke:currentColor;stroke-width:1"
       id="path174"
       d="m 213.80487,454.63348 0,-9 m 0,-399.000006 0,9" />
    <path
       inkscape:connector-curvature="0"
       style="color:#808080;fill:none;stroke:currentColor;stroke-width:1;stroke-miterlimit:4;stroke-dasharray:1, 3;stroke-dashoffset:0"
       id="path182"
       d="m 264.80487,454.63348 0,-408.000006" />
    <path
       inkscape:connector-curvature="0"
       style="color:#000000;fill:none;stroke:currentColor;stroke-width:1"
       id="path186"
       d="m 264.80487,454.63348 0,-9 m 0,-399.000006 0,9" />
    <path
       inkscape:connector-curvature="0"
       style="color:#808080;fill:none;stroke:currentColor;stroke-width:1;stroke-miterlimit:4;stroke-dasharray:1, 3;stroke-dashoffset:0"
       id="path194"
       d="m 315.80487,454.63348 0,-408.000006" />
    <path
       inkscape:connector-curvature="0"
       style="color:#000000;fill:none;stroke:currentColor;stroke-width:1"
       id="path198"
       d="m 315.80487,454.63348 0,-9 m 0,-399.000006 0,9" />
    <path
       inkscape:connector-curvature="0"
       style="color:#808080;fill:none;stroke:currentColor;stroke-width:1;stroke-miterlimit:4;stroke-dasharray:1, 3;stroke-dashoffset:0"
       id="path206"
       d="m 366.80487,454.63348 0,-408.000006" />
    <path
       inkscape:connector-curvature="0"
       style="color:#000000;fill:none;stroke:currentColor;stroke-width:1"
       id="path210"
       d="m 366.80487,454.63348 0,-9 m 0,-399.000006 0,9" />
    <path
       inkscape:connector-curvature="0"
       style="color:#808080;fill:none;stroke:currentColor;stroke-width:1;stroke-miterlimit:4;stroke-dasharray:1, 3;stroke-dashoffset:0"
       id="path218"
       d="m 417.80487,454.63348 0,-408.000006" />
    <path
       inkscape:connector-curvature="0"
       style="color:#000000;fill:none;stroke:currentColor;stroke-width:1"
       id="path222"
       d="m 417.80487,454.63348 0,-9 m 0,-399.000006 0,9" />
    <path
       inkscape:connector-curvature="0"
       style="color:#808080;fill:none;stroke:currentColor;stroke-width:1;stroke-miterlimit:4;stroke-dasharray:1, 3;stroke-dashoffset:0"
       id="path230"
       d="m 468.80487,454.63348 0,-408.000006" />
    <path
       inkscape:connector-curvature="0"
       style="color:#000000;fill:none;stroke:currentColor;stroke-width:1"
       id="path234"
       d="m 468.80487,454.63348 0,-9 m 0,-399.000006 0,9" />
    <path
       inkscape:connector-curvature="0"
       style="color:#808080;fill:none;stroke:currentColor;stroke-width:1;stroke-miterlimit:4;stroke-dasharray:1, 3;stroke-dashoffset:0"
       id="path242"
       d="m 519.80487,454.63348 0,-408.000006" />
    <path
       inkscape:connector-curvature="0"
       style="color:#000000;fill:none;stroke:currentColor;stroke-width:1"
       id="path246"
       d="m 519.80487,454.63348 0,-9 m 0,-399.000006 0,9" />
    <path
       inkscape:connector-curvature="0"
       style="color:#808080;fill:none;stroke:currentColor;stroke-width:1"
       id="path254"
       d="m 570.80487,454.63348 0,-408.000006" />
    <path
       inkscape:connector-curvature="0"
       style="color:#000000;fill:none;stroke:currentColor;stroke-width:1"
       id="path258"
       d="m 570.80487,454.63348 0,-9 m 0,-399.000006 0,9" />
    <path
       inkscape:connector-curvature="0"
       style="color:#000000;fill:none;stroke:currentColor;stroke-width:1"
       id="path264"
       d="m 60.804871,454.63348 509.999999,0 0,-408.000006 -509.999999,0 0,408.000006" />
    <path
       inkscape:connector-curvature="0"
       style="color:#ff0000;fill:none;stroke:#000000;stroke-width:2;stroke-miterlimit:4;stroke-dasharray:none;stroke-opacity:1"
       id="path268"
       d="m 60.804871,112.63347 5,-12.999996 5,-12 5,-9 6,-6 5,-4 5,-2 5,2 4.999999,4 5,6 6,10 5,11 5,13.999996 5,15 5,18 5,19 5,20 6,21 5,22.00001 5,22 5,22 5,22 5,21 5,20 6,19 5,17 5,16 5,14 5,11 5,9 6,7 5,4 5,2 5,-2 5,-4 5,-6 5,-9 6,-11 5,-14 5,-15 5,-18 5,-19 5,-20 6,-21 5,-22 5,-22 5,-22 5,-21.00001 5,-22 5,-20 6,-19 5,-17 5,-16 5,-14 5,-11.999996 5,-9 5,-7 6,-4 5,-2 5,2 5,3 5,7 5,8 6,12 5,12.999996 5,16 5,17 5,19 5,20 5,21 6,21.00001 5,22 5,23 5,21 5,22 5,20 6,19 5,18 5,15 5,14 5,12 5,10 5,7 6,4 5,2 5,-1 5,-4 5,-6 5,-9 5,-11 6,-13 5,-16 5,-17 5,-19 5,-20 5,-21 6,-21 5,-22 5,-22 5,-22.00001" />
    <path
       inkscape:connector-curvature="0"
       style="color:#008000;fill:none;stroke:#ff0000;stroke-width:2;stroke-miterlimit:4;stroke-dasharray:none;stroke-opacity:1"
       id="path272"
       d="m 60.804871,120.63347 5,-13 5,-10.999996 5,-8 6,-6 5,-4 5,-1 5,1 4.999999,4 5,6 6,9 5,9.999996 5,13 5,15 5,16 5,18 5,19 6,20 5,21.00001 5,21 5,21 5,20 5,20 5,19 6,18 5,17 5,14 5,13 5,11 5,9 6,6 5,4 5,1 5,-1 5,-3 5,-7 5,-8 6,-11 5,-13 5,-14 5,-17 5,-17 5,-19 6,-20 5,-21 5,-21 5,-21 5,-20.00001 5,-20 5,-19 6,-18 5,-17 5,-15 5,-13 5,-10.999996 5,-8 5,-7 6,-4 5,-1 5,1 5,3 5,6 5,9 6,9.999996 5,13 5,14 5,17 5,17 5,19 5,20 6,21.00001 5,21 5,20 5,21 5,20 5,19 6,18 5,17 5,15 5,13 5,11 5,9 5,7 6,4 5,1 5,-1 5,-3 5,-6 5,-8 5,-11 6,-12 5,-15 5,-16 5,-17 5,-19 5,-20 6,-21 5,-20 5,-21 5,-21.00001" />
    <path
       inkscape:connector-curvature="0"
       style="color:#000000;fill:none;stroke:currentColor;stroke-width:3;stroke-miterlimit:4;stroke-dasharray:none"
       id="path276"
       d="m 60.804871,454.63348 509.999999,0 0,-408.000006 -509.999999,0 0,408.000006" />
    <g
       style="color:#000000;fill:none;stroke:currentColor;stroke-width:1"
       id="g1511"
       transform="translate(640.7913,1.306022)" />
  </g>
  <g
     inkscape:groupmode="layer"
     id="layer3"
     inkscape:label="Labels">
    <text
       xml:space="preserve"
       style="font-style:normal;font-variant:normal;font-weight:normal;font-stretch:normal;font-size:24px;line-height:125%;font-family:'Bitstream Vera Sans';text-align:start;writing-mode:lr-tb;text-anchor:start;display:inline;fill:#ff0000;fill-opacity:1;stroke:none;stroke-width:1px;stroke-linecap:butt;stroke-linejoin:miter;stroke-opacity:1"
       x="421.71494"
       y="128.84305"
       id="text4146"
       sodipodi:linespacing="125%"><tspan
         sodipodi:role="line"
         id="tspan4148"
         x="421.71494"
         y="128.84305">V<tspan
   style="font-size:65%;baseline-shift:sub"
   id="tspan4949">out</tspan></tspan></text>
    <text
       xml:space="preserve"
       style="font-style:normal;font-weight:normal;font-size:24px;font-family:'Bitstream Vera Sans';display:inline;fill:#000000;fill-opacity:1;stroke:none;stroke-width:1px;stroke-linecap:butt;stroke-linejoin:miter;stroke-opacity:1"
       x="275.13049"
       y="85.97084"
       id="text2638"><tspan
         sodipodi:role="line"
         id="tspan2640"
         x="275.13049"
         y="85.97084">V<tspan
   style="font-size:64.99999762%;baseline-shift:sub"
   id="tspan4273">in</tspan></tspan></text>
    <path
       style="display:inline;fill:none;fill-opacity:0.75;fill-rule:evenodd;stroke:#ff0000;stroke-width:0.99999994px;stroke-linecap:butt;stroke-linejoin:miter;stroke-opacity:1"
       d="M 359.75297,76.770831 421.479,111.97084"
       id="path3318"
       sodipodi:nodetypes="cc"
       inkscape:connector-curvature="0" />
    <path
       style="display:inline;fill:none;fill-opacity:0.75;fill-rule:evenodd;stroke:#000000;stroke-width:1px;stroke-linecap:butt;stroke-linejoin:miter;stroke-opacity:1"
       d="m 360.60248,66.104161 -57.59999,7.46667"
       id="path4046"
       sodipodi:nodetypes="cc"
       inkscape:connector-curvature="0" />
    <text
       xml:space="preserve"
       style="font-style:normal;font-variant:normal;font-weight:normal;font-stretch:normal;font-size:24px;line-height:125%;font-family:'Bitstream Vera Sans';text-align:start;writing-mode:lr-tb;text-anchor:start;display:inline;fill:#000000;fill-opacity:1;stroke:none;stroke-width:1px;stroke-linecap:butt;stroke-linejoin:miter;stroke-opacity:1"
       x="287.1091"
       y="488.64935"
       id="text5081"
       sodipodi:linespacing="125%"><tspan
         sodipodi:role="line"
         id="tspan5083"
         x="287.1091"
         y="488.64935">Time</tspan></text>
    <text
       xml:space="preserve"
       style="font-style:normal;font-variant:normal;font-weight:normal;font-stretch:normal;font-size:24px;line-height:125%;font-family:'Bitstream Vera Sans';text-align:start;writing-mode:lr-tb;text-anchor:start;display:inline;fill:#000000;fill-opacity:1;stroke:none;stroke-width:1px;stroke-linecap:butt;stroke-linejoin:miter;stroke-opacity:1"
       x="-295.09259"
       y="42.611984"
       id="text5085"
       sodipodi:linespacing="125%"
       transform="matrix(0,-1,1,0,0,0)"><tspan
         sodipodi:role="line"
         id="tspan5087"
         x="-295.09259"
         y="42.611984">Voltage</tspan></text>
    <text
       xml:space="preserve"
       style="font-style:normal;font-variant:normal;font-weight:bold;font-stretch:normal;font-size:24px;line-height:125%;font-family:'Bitstream Vera Sans';text-align:start;writing-mode:lr-tb;text-anchor:start;display:inline;fill:#000000;fill-opacity:1;stroke:none;stroke-width:1px;stroke-linecap:butt;stroke-linejoin:miter;stroke-opacity:1"
       x="296.31601"
       y="520.73853"
       id="text1658"
       sodipodi:linespacing="125%"><tspan
         sodipodi:role="line"
         id="tspan1660"
         x="296.31601"
         y="520.73853">(c)</tspan></text>
    <text
       sodipodi:linespacing="125%"
       id="text1662"
       y="520.73853"
       x="890.31061"
       style="font-style:normal;font-variant:normal;font-weight:bold;font-stretch:normal;font-size:24px;line-height:125%;font-family:'Bitstream Vera Sans';text-align:start;writing-mode:lr-tb;text-anchor:start;display:inline;fill:#000000;fill-opacity:1;stroke:none;stroke-width:1px;stroke-linecap:butt;stroke-linejoin:miter;stroke-opacity:1"
       xml:space="preserve"><tspan
         y="520.73853"
         x="890.31061"
         id="tspan1664"
         sodipodi:role="line">(d)</tspan></text>
    <text
       xml:space="preserve"
       style="font-style:normal;font-variant:normal;font-weight:normal;font-stretch:normal;font-size:25px;line-height:125%;font-family:'Bitstream Vera Sans';-inkscape-font-specification:'Bitstream Vera Sans, Normal';text-align:start;letter-spacing:0px;word-spacing:0px;writing-mode:lr-tb;text-anchor:start;display:inline;fill:#000000;fill-opacity:1;stroke:none;stroke-width:1px;stroke-linecap:butt;stroke-linejoin:miter;stroke-opacity:1"
       x="-273.15286"
       y="634.45801"
       id="text4304"
       sodipodi:linespacing="125%"
       transform="matrix(0,-1,1,0,0,0)"><tspan
         sodipodi:role="line"
         id="tspan4306"
         x="-273.15286"
         y="634.45801"
         style="font-style:normal;font-variant:normal;font-weight:normal;font-stretch:normal;font-size:25px;line-height:125%;font-family:'Bitstream Vera Sans';-inkscape-font-specification:'Bitstream Vera Sans, Normal';text-align:start;writing-mode:lr-tb;text-anchor:start">V<tspan
   style="font-size:65%;baseline-shift:sub"
   id="tspan4947">out</tspan></tspan></text>
    <text
       id="text4314"
       y="486.05014"
       x="894.64777"
       style="font-style:normal;font-weight:normal;font-size:24px;font-family:'Bitstream Vera Sans';display:inline;fill:#000000;fill-opacity:1;stroke:none;stroke-width:1px;stroke-linecap:butt;stroke-linejoin:miter;stroke-opacity:1"
       xml:space="preserve"><tspan
         y="486.05014"
         x="894.64777"
         id="tspan4316"
         sodipodi:role="line">V<tspan
   id="tspan4318"
   style="font-size:64.99999762%;baseline-shift:sub">in</tspan></tspan></text>
    <text
       xml:space="preserve"
       style="font-style:normal;font-variant:normal;font-weight:bold;font-stretch:normal;font-size:25px;font-family:Monospace;text-align:start;writing-mode:lr-tb;text-anchor:start;display:inline;fill:#000000;fill-opacity:1;stroke:none;stroke-width:1px;stroke-linecap:butt;stroke-linejoin:miter;stroke-opacity:1"
       x="1019.5454"
       y="435.91592"
       id="text1549"><tspan
         sodipodi:role="line"
         id="tspan1551"
         x="1019.5454"
         y="435.91592"
         style="font-style:normal;font-variant:normal;font-weight:normal;font-stretch:normal;font-size:25px;font-family:'Bitstream Vera Sans';-inkscape-font-specification:'Bitstream Vera Sans'">(X-Y Mode)</tspan></text>
  </g>
</svg>
