<?xml version="1.0" encoding="UTF-8" standalone="no"?>
<svg
   xmlns:dc="http://purl.org/dc/elements/1.1/"
   xmlns:cc="http://creativecommons.org/ns#"
   xmlns:rdf="http://www.w3.org/1999/02/22-rdf-syntax-ns#"
   xmlns:svg="http://www.w3.org/2000/svg"
   xmlns="http://www.w3.org/2000/svg"
   xmlns:xlink="http://www.w3.org/1999/xlink"
   xmlns:sodipodi="http://sodipodi.sourceforge.net/DTD/sodipodi-0.dtd"
   xmlns:inkscape="http://www.inkscape.org/namespaces/inkscape"
   width="623.27802"
   height="536.08905"
   viewBox="0 0 623.27802 536.08905"
   id="svg2"
   version="1.1"
   inkscape:version="0.91 r13725"
   sodipodi:docname="rlc_phi.svg">
  <metadata
     id="metadata284">
    <rdf:RDF>
      <cc:Work
         rdf:about="">
        <dc:format>image/svg+xml</dc:format>
        <dc:type
           rdf:resource="http://purl.org/dc/dcmitype/StillImage" />
        <dc:title>Gnuplot</dc:title>
      </cc:Work>
    </rdf:RDF>
  </metadata>
  <defs
     id="defs282">
    <defs
       id="defs11">
      <circle
         r="0.5"
         id="gpDot"
         cx="0"
         cy="0"
         style="stroke-width:0.5" />
      <path
         d="M -1,0 1,0 M 0,-1 0,1"
         id="gpPt0"
         inkscape:connector-curvature="0"
         style="stroke:currentColor;stroke-width:0.222" />
      <path
         d="M -1,-1 1,1 M 1,-1 -1,1"
         id="gpPt1"
         inkscape:connector-curvature="0"
         style="stroke:currentColor;stroke-width:0.222" />
      <path
         d="M -1,0 1,0 M 0,-1 0,1 m -1,-2 2,2 m -2,0 2,-2"
         id="gpPt2"
         inkscape:connector-curvature="0"
         style="stroke:currentColor;stroke-width:0.222" />
      <rect
         height="2"
         width="2"
         y="-1"
         x="-1"
         id="gpPt3"
         style="stroke:currentColor;stroke-width:0.222" />
      <rect
         height="2"
         width="2"
         y="-1"
         x="-1"
         id="gpPt4"
         style="fill:currentColor;stroke:currentColor;stroke-width:0.222" />
      <circle
         r="1"
         cy="0"
         cx="0"
         id="gpPt5"
         style="stroke:currentColor;stroke-width:0.222" />
      <use
         id="gpPt6"
         xlink:href="#gpPt5"
         style="fill:currentColor;stroke:none"
         x="0"
         y="0"
         width="100%"
         height="100%" />
      <path
         d="m 0,-1.33 -1.33,2 2.66,0 z"
         id="gpPt7"
         inkscape:connector-curvature="0"
         style="stroke:currentColor;stroke-width:0.222" />
      <use
         id="gpPt8"
         xlink:href="#gpPt7"
         style="fill:currentColor;stroke:none"
         x="0"
         y="0"
         width="100%"
         height="100%" />
      <use
         transform="scale(-1,-1)"
         id="gpPt9"
         xlink:href="#gpPt7"
         style="stroke:currentColor"
         x="0"
         y="0"
         width="100%"
         height="100%" />
      <use
         id="gpPt10"
         xlink:href="#gpPt9"
         style="fill:currentColor;stroke:none"
         x="0"
         y="0"
         width="100%"
         height="100%" />
      <use
         transform="matrix(0.70710678,0.70710678,-0.70710678,0.70710678,0,0)"
         id="gpPt11"
         xlink:href="#gpPt3"
         style="stroke:currentColor"
         x="0"
         y="0"
         width="100%"
         height="100%" />
      <use
         id="gpPt12"
         xlink:href="#gpPt11"
         style="fill:currentColor;stroke:none"
         x="0"
         y="0"
         width="100%"
         height="100%" />
      <path
         d="M 0,1.33 1.265,0.411 0.782,-1.067 -0.782,-1.076 -1.265,0.411 Z"
         id="gpPt13"
         inkscape:connector-curvature="0"
         style="stroke:currentColor;stroke-width:0.222" />
      <use
         id="gpPt14"
         xlink:href="#gpPt13"
         style="fill:currentColor;stroke:none"
         x="0"
         y="0"
         width="100%"
         height="100%" />
      <filter
         width="1"
         height="1"
         y="0"
         x="0"
         filterUnits="objectBoundingBox"
         id="textbox">
        <feFlood
           id="feFlood30"
           result="bgnd"
           flood-opacity="1"
           flood-color="white" />
        <feComposite
           id="feComposite32"
           operator="atop"
           in2="bgnd"
           in="SourceGraphic" />
      </filter>
      <filter
         width="1"
         height="1"
         y="0"
         x="0"
         filterUnits="objectBoundingBox"
         id="greybox">
        <feFlood
           id="feFlood35"
           result="grey"
           flood-opacity="1"
           flood-color="lightgrey" />
        <feComposite
           id="feComposite37"
           operator="atop"
           in2="grey"
           in="SourceGraphic" />
      </filter>
    </defs>
  </defs>
  <sodipodi:namedview
     pagecolor="#ffffff"
     bordercolor="#666666"
     borderopacity="1"
     objecttolerance="10"
     gridtolerance="10"
     guidetolerance="10"
     inkscape:pageopacity="0"
     inkscape:pageshadow="2"
     inkscape:window-width="1319"
     inkscape:window-height="744"
     id="namedview280"
     showgrid="false"
     inkscape:zoom="1.1322746"
     inkscape:cx="311.639"
     inkscape:cy="268.04452"
     inkscape:window-x="41"
     inkscape:window-y="24"
     inkscape:window-maximized="1"
     inkscape:current-layer="layer1"
     fit-margin-top="10"
     fit-margin-right="10"
     fit-margin-bottom="10"
     fit-margin-left="10" />
  <title
     id="title4">Gnuplot</title>
  <desc
     id="desc6">Produced by GNUPLOT 5.0 patchlevel 3 </desc>
  <g
     inkscape:groupmode="layer"
     id="layer1"
     inkscape:label="Plot"
     transform="translate(13.278042,10)">
    <rect
       style="fill:none"
       id="rect9"
       height="480"
       width="600"
       y="0"
       x="0" />
    <path
       d="m 53.9,444 9,0 m 503.1,0 -9,0"
       id="path43"
       inkscape:connector-curvature="0"
       style="color:#000000;fill:none;stroke:#000000;stroke-width:1;stroke-linecap:butt;stroke-linejoin:miter" />
    <g
       transform="translate(45.6,448.5)"
       font-size="12.00"
       id="g45"
       style="color:#000000;font-size:12px;font-family:Arial;text-anchor:end;fill:#000000;stroke:none;stroke-width:1;stroke-linecap:butt;stroke-linejoin:miter">
      <text
         id="text47">
        <tspan
           id="tspan49"
           style="font-family:Arial">-2</tspan>
      </text>
    </g>
    <path
       d="m 53.9,390.6 9,0 m 503.1,0 -9,0"
       id="path53"
       inkscape:connector-curvature="0"
       style="color:#000000;fill:none;stroke:#000000;stroke-width:1;stroke-linecap:butt;stroke-linejoin:miter" />
    <g
       transform="translate(45.6,395.1)"
       font-size="12.00"
       id="g55"
       style="color:#000000;font-size:12px;font-family:Arial;text-anchor:end;fill:#000000;stroke:none;stroke-width:1;stroke-linecap:butt;stroke-linejoin:miter">
      <text
         id="text57">
        <tspan
           id="tspan59"
           style="font-family:Arial">-1.5</tspan>
      </text>
    </g>
    <path
       d="m 53.9,337.2 9,0 m 503.1,0 -9,0"
       id="path63"
       inkscape:connector-curvature="0"
       style="color:#000000;fill:none;stroke:#000000;stroke-width:1;stroke-linecap:butt;stroke-linejoin:miter" />
    <g
       transform="translate(45.6,341.7)"
       font-size="12.00"
       id="g65"
       style="color:#000000;font-size:12px;font-family:Arial;text-anchor:end;fill:#000000;stroke:none;stroke-width:1;stroke-linecap:butt;stroke-linejoin:miter">
      <text
         id="text67">
        <tspan
           id="tspan69"
           style="font-family:Arial">-1</tspan>
      </text>
    </g>
    <path
       d="m 53.9,283.8 9,0 m 503.1,0 -9,0"
       id="path73"
       inkscape:connector-curvature="0"
       style="color:#000000;fill:none;stroke:#000000;stroke-width:1;stroke-linecap:butt;stroke-linejoin:miter" />
    <g
       transform="translate(45.6,288.3)"
       font-size="12.00"
       id="g75"
       style="color:#000000;font-size:12px;font-family:Arial;text-anchor:end;fill:#000000;stroke:none;stroke-width:1;stroke-linecap:butt;stroke-linejoin:miter">
      <text
         id="text77">
        <tspan
           id="tspan79"
           style="font-family:Arial">-0.5</tspan>
      </text>
    </g>
    <path
       d="m 53.9,230.3 511.14168,0 m 0.95832,0 -9,0"
       id="path83"
       inkscape:connector-curvature="0"
       style="color:#000000;fill:none;stroke:#000000;stroke-width:1;stroke-linecap:butt;stroke-linejoin:miter"
       sodipodi:nodetypes="cccc" />
    <g
       transform="translate(45.6,234.8)"
       font-size="12.00"
       id="g85"
       style="color:#000000;font-size:12px;font-family:Arial;text-anchor:end;fill:#000000;stroke:none;stroke-width:1;stroke-linecap:butt;stroke-linejoin:miter">
      <text
         id="text87">
        <tspan
           id="tspan89"
           style="font-family:Arial">0</tspan>
      </text>
    </g>
    <path
       d="m 53.9,176.9 9,0 m 503.1,0 -9,0"
       id="path93"
       inkscape:connector-curvature="0"
       style="color:#000000;fill:none;stroke:#000000;stroke-width:1;stroke-linecap:butt;stroke-linejoin:miter" />
    <g
       transform="translate(45.6,181.4)"
       font-size="12.00"
       id="g95"
       style="color:#000000;font-size:12px;font-family:Arial;text-anchor:end;fill:#000000;stroke:none;stroke-width:1;stroke-linecap:butt;stroke-linejoin:miter">
      <text
         id="text97">
        <tspan
           id="tspan99"
           style="font-family:Arial">0.5</tspan>
      </text>
    </g>
    <path
       d="m 53.9,123.5 9,0 m 503.1,0 -9,0"
       id="path103"
       inkscape:connector-curvature="0"
       style="color:#000000;fill:none;stroke:#000000;stroke-width:1;stroke-linecap:butt;stroke-linejoin:miter" />
    <g
       transform="translate(45.6,128)"
       font-size="12.00"
       id="g105"
       style="color:#000000;font-size:12px;font-family:Arial;text-anchor:end;fill:#000000;stroke:none;stroke-width:1;stroke-linecap:butt;stroke-linejoin:miter">
      <text
         id="text107">
        <tspan
           id="tspan109"
           style="font-family:Arial">1</tspan>
      </text>
    </g>
    <path
       d="m 53.9,70.1 9,0 m 503.1,0 -9,0"
       id="path113"
       inkscape:connector-curvature="0"
       style="color:#000000;fill:none;stroke:#000000;stroke-width:1;stroke-linecap:butt;stroke-linejoin:miter" />
    <g
       transform="translate(45.6,74.6)"
       font-size="12.00"
       id="g115"
       style="color:#000000;font-size:12px;font-family:Arial;text-anchor:end;fill:#000000;stroke:none;stroke-width:1;stroke-linecap:butt;stroke-linejoin:miter">
      <text
         id="text117">
        <tspan
           id="tspan119"
           style="font-family:Arial">1.5</tspan>
      </text>
    </g>
    <path
       d="m 53.9,16.7 9,0 m 503.1,0 -9,0"
       id="path123"
       inkscape:connector-curvature="0"
       style="color:#000000;fill:none;stroke:#000000;stroke-width:1;stroke-linecap:butt;stroke-linejoin:miter" />
    <g
       transform="translate(45.6,21.2)"
       font-size="12.00"
       id="g125"
       style="color:#000000;font-size:12px;font-family:Arial;text-anchor:end;fill:#000000;stroke:none;stroke-width:1;stroke-linecap:butt;stroke-linejoin:miter">
      <text
         id="text127">
        <tspan
           id="tspan129"
           style="font-family:Arial">2</tspan>
      </text>
    </g>
    <path
       d="m 53.9,444 0,-9 m 0,-418.3 0,9"
       id="path133"
       inkscape:connector-curvature="0"
       style="color:#000000;fill:none;stroke:#000000;stroke-width:1;stroke-linecap:butt;stroke-linejoin:miter" />
    <path
       d="m 79.6,444 0,-4.5 m 0,-422.8 0,4.5 m 34,422.8 0,-4.5 m 0,-422.8 0,4.5 M 131,444 l 0,-4.5 m 0,-422.8 0,4.5 m 8.3,422.8 0,-9 m 0,-418.3 0,9"
       id="path143"
       inkscape:connector-curvature="0"
       style="color:#000000;fill:none;stroke:#000000;stroke-width:1;stroke-linecap:butt;stroke-linejoin:miter" />
    <path
       d="m 164.9,444 0,-4.5 m 0,-422.8 0,4.5 m 34,422.8 0,-4.5 m 0,-422.8 0,4.5 m 17.4,422.8 0,-4.5 m 0,-422.8 0,4.5 m 8.3,422.8 0,-9 m 0,-418.3 0,9"
       id="path153"
       inkscape:connector-curvature="0"
       style="color:#000000;fill:none;stroke:#000000;stroke-width:1;stroke-linecap:butt;stroke-linejoin:miter" />
    <path
       d="m 250.3,444 0,-4.5 m 0,-422.8 0,4.5 m 34,422.8 0,-4.5 m 0,-422.8 0,4.5 m 17.4,422.8 0,-4.5 m 0,-422.8 0,4.5 m 8.3,422.8 0,-9 m 0,-418.3 0,9"
       id="path163"
       inkscape:connector-curvature="0"
       style="color:#000000;fill:none;stroke:#000000;stroke-width:1;stroke-linecap:butt;stroke-linejoin:miter" />
    <path
       d="m 335.6,444 0,-4.5 m 0,-422.8 0,4.5 m 34,422.8 0,-4.5 m 0,-422.8 0,4.5 M 387,444 l 0,-4.5 m 0,-422.8 0,4.5 m 8.3,422.8 0,-9 m 0,-418.3 0,9"
       id="path173"
       inkscape:connector-curvature="0"
       style="color:#000000;fill:none;stroke:#000000;stroke-width:1;stroke-linecap:butt;stroke-linejoin:miter" />
    <path
       d="m 421,444 0,-4.5 m 0,-422.8 0,4.5 m 34,422.8 0,-4.5 m 0,-422.8 0,4.5 m 17.4,422.8 0,-4.5 m 0,-422.8 0,4.5 m 8.3,422.8 0,-9 m 0,-418.3 0,9"
       id="path187"
       inkscape:connector-curvature="0"
       style="color:#000000;fill:none;stroke:#000000;stroke-width:1;stroke-linecap:butt;stroke-linejoin:miter" />
    <path
       d="m 506.3,444 0,-4.5 m 0,-422.8 0,4.5 m 34,422.8 0,-4.5 m 0,-422.8 0,4.5 m 17.4,422.8 0,-4.5 m 0,-422.8 0,4.5 m 8.3,422.8 0,-9 m 0,-418.3 0,9"
       id="path201"
       inkscape:connector-curvature="0"
       style="color:#000000;fill:none;stroke:#000000;stroke-width:1;stroke-linecap:butt;stroke-linejoin:miter" />
    <path
       d="m 53.9,16.7 0,427.3 512.1,0 0,-427.3 -512.1,0 z"
       id="path217"
       inkscape:connector-curvature="0"
       style="color:#000000;fill:none;stroke:#000000;stroke-width:1;stroke-linecap:butt;stroke-linejoin:miter" />
    <g
       transform="matrix(0,-1,1,0,17.6,230.4)"
       font-size="12.00"
       id="g221"
       style="color:#000000;font-size:12px;font-family:Arial;text-anchor:middle;fill:#000000;stroke:none;stroke-width:1;stroke-linecap:butt;stroke-linejoin:miter">
      <text
         id="text223" />
    </g>
    <g
       transform="matrix(0,-1,1,0,588.4,230.4)"
       font-size="12.00"
       id="g227"
       style="color:#000000;font-size:12px;font-family:Arial;text-anchor:middle;fill:#000000;stroke:none;stroke-width:1;stroke-linecap:butt;stroke-linejoin:miter">
      <text
         id="text229" />
    </g>
    <g
       transform="translate(309.9,30.2)"
       font-size="12.00"
       id="g235"
       style="color:#000000;font-size:12px;font-family:Arial;text-anchor:middle;fill:#000000;stroke:none;stroke-width:1;stroke-linecap:butt;stroke-linejoin:miter">
      <text
         id="text237" />
    </g>
    <g
       transform="translate(309.9,30.3)"
       font-size="12.00"
       id="g239"
       style="color:#000000;font-size:12px;font-family:Arial;text-anchor:middle;fill:#000000;stroke:none;stroke-width:1;stroke-linecap:butt;stroke-linejoin:miter">
      <text
         id="text241" />
    </g>
    <g
       transform="translate(4.1,475.5)"
       font-size="12.00"
       id="g245"
       style="color:#000000;font-size:12px;font-family:Arial;text-anchor:start;fill:#000000;stroke:none;stroke-width:1;stroke-linecap:butt;stroke-linejoin:miter">
      <text
         id="text247" />
    </g>
    <g
       transform="translate(412.1,39.2)"
       font-size="12.00"
       id="g249"
       style="color:#000000;font-size:12px;font-family:Arial;text-anchor:middle;fill:#000000;stroke:none;stroke-width:1;stroke-linecap:butt;stroke-linejoin:miter">
      <text
         id="text251" />
    </g>
    <g
       id="g264"
       style="color:#000000;fill:none;stroke:#000000;stroke-width:1;stroke-linecap:butt;stroke-linejoin:miter;stroke-opacity:1">
      <path
         d="m 53.9,62.6 8.5,0 8.6,0.1 8.5,0 8.5,0 8.6,0.1 8.5,0 8.5,0.1 8.6,0.1 8.5,0.1 8.5,0.1 8.6,0.2 8.5,0.2 8.6,0.3 8.5,0.3 8.5,0.5 8.6,0.5 8.5,0.7 8.5,0.9 8.6,1.2 8.5,1.5 8.5,2 8.6,2.8 8.5,4 8.5,6.4 8.6,11.7 8.5,29.1 8.5,102 8.6,105.9 8.5,30.2 8.6,12.1 8.5,6.5 8.5,4.1 8.6,2.8 8.5,2 8.5,1.5 8.6,1.2 8.5,0.9 8.5,0.7 8.6,0.6 8.5,0.4 8.5,0.4 8.6,0.3 8.5,0.2 8.5,0.2 8.6,0.1 8.5,0.1 8.5,0.1 8.6,0.1 8.5,0 8.6,0.1 8.5,0 8.5,0 8.6,0.1 8.5,0 8.5,0 8.6,0 8.5,0 8.5,0 8.6,0 8.5,0"
         id="path266"
         inkscape:connector-curvature="0"
         style="stroke:#000000;stroke-opacity:1"
         sodipodi:nodetypes="ccccccccccccccccccccccccccccccccccccccccccccccccccccccccccccc" />
    </g>
    <path
       d="m 53.9,16.7 0,427.3 512.1,0 0,-427.3 -512.1,0 z"
       id="path276"
       inkscape:connector-curvature="0"
       style="color:#000000;fill:none;stroke:#000000;stroke-width:3;stroke-linecap:butt;stroke-linejoin:miter;stroke-miterlimit:4;stroke-dasharray:none" />
  </g>
  <g
     inkscape:groupmode="layer"
     id="layer2"
     inkscape:label="Labels"
     style="display:inline"
     transform="translate(13.278042,10)">
    <path
       inkscape:connector-curvature="0"
       id="path4533"
       d="m 284.25938,441.25206 0,-424.6458"
       style="display:inline;fill:none;fill-rule:evenodd;stroke:#000000;stroke-width:0.5;stroke-linecap:butt;stroke-linejoin:miter;stroke-miterlimit:4;stroke-dasharray:4, 4;stroke-dashoffset:0;stroke-opacity:1" />
    <rect
       y="411.20264"
       x="266.06314"
       height="23.723228"
       width="33.640347"
       id="rect4545"
       style="display:inline;fill:#ffffff;fill-opacity:1;stroke:none;stroke-width:0.5;stroke-miterlimit:4;stroke-dasharray:4, 4;stroke-dashoffset:0;stroke-opacity:1" />
    <text
       sodipodi:linespacing="125%"
       id="text4527"
       y="428.27344"
       x="268.43509"
       style="font-style:normal;font-weight:normal;font-size:15px;line-height:125%;font-family:sans-serif;letter-spacing:0px;word-spacing:0px;display:inline;fill:#000000;fill-opacity:1;stroke:none;stroke-width:1px;stroke-linecap:butt;stroke-linejoin:miter;stroke-opacity:1"
       xml:space="preserve"><tspan
         style="font-size:25px"
         y="428.27344"
         x="268.43509"
         id="tspan4529"
         sodipodi:role="line">ω<tspan
   id="tspan4543"
   style="font-size:64.99999762%;baseline-shift:sub">o</tspan></tspan></text>
    <text
       xml:space="preserve"
       style="font-style:normal;font-weight:normal;font-size:15px;line-height:125%;font-family:sans-serif;letter-spacing:0px;word-spacing:0px;display:inline;fill:#000000;fill-opacity:1;stroke:none;stroke-width:1px;stroke-linecap:butt;stroke-linejoin:miter;stroke-opacity:1"
       x="-272.65228"
       y="15.716099"
       id="text4733"
       sodipodi:linespacing="125%"
       transform="matrix(0,-1,1,0,0,0)"><tspan
         sodipodi:role="line"
         id="tspan4735"
         x="-272.65228"
         y="15.716099"
         style="font-size:25px">ϕ (rad)</tspan></text>
    <path
       style="display:inline;fill:none;fill-rule:evenodd;stroke:#000000;stroke-width:0.5;stroke-linecap:butt;stroke-linejoin:miter;stroke-miterlimit:4;stroke-dasharray:4, 4;stroke-dashoffset:0;stroke-opacity:1"
       d="m 53.748671,62.35 511.630979,0"
       id="path4741"
       inkscape:connector-curvature="0"
       sodipodi:nodetypes="cc" />
    <rect
       style="fill:#ffffff;fill-opacity:1;stroke:none;stroke-width:1;stroke-miterlimit:4;stroke-dasharray:none;stroke-dashoffset:0;stroke-opacity:1"
       id="rect4749"
       width="39.843422"
       height="23.979748"
       x="496.21722"
       y="50.360126" />
    <path
       sodipodi:nodetypes="cc"
       inkscape:connector-curvature="0"
       id="path4747"
       d="M 53.287483,398.35 566.5,398.35"
       style="display:inline;fill:none;fill-rule:evenodd;stroke:#000000;stroke-width:0.5;stroke-linecap:butt;stroke-linejoin:miter;stroke-miterlimit:4;stroke-dasharray:4, 4;stroke-dashoffset:0;stroke-opacity:1" />
    <text
       xml:space="preserve"
       style="font-style:normal;font-weight:normal;font-size:15px;line-height:125%;font-family:sans-serif;letter-spacing:0px;word-spacing:0px;fill:#000000;fill-opacity:1;stroke:none;stroke-width:1px;stroke-linecap:butt;stroke-linejoin:miter;stroke-opacity:1"
       x="497.50299"
       y="70.467674"
       id="text4737"
       sodipodi:linespacing="125%"><tspan
         sodipodi:role="line"
         id="tspan4739"
         x="497.50299"
         y="70.467674"
         style="font-size:25px">π/2</tspan></text>
    <text
       xml:space="preserve"
       style="font-style:normal;font-weight:normal;font-size:15px;line-height:125%;font-family:sans-serif;letter-spacing:0px;word-spacing:0px;fill:#000000;fill-opacity:1;stroke:none;stroke-width:1px;stroke-linecap:butt;stroke-linejoin:miter;stroke-opacity:1"
       x="315.38751"
       y="504.0033"
       id="text4799"
       sodipodi:linespacing="125%"><tspan
         sodipodi:role="line"
         id="tspan4801"
         x="315.38751"
         y="504.0033" /></text>
    <g
       id="g4829"
       transform="translate(-158.72194,-1.9109497)">
      <text
         xml:space="preserve"
         style="font-style:normal;font-weight:normal;font-size:15px;line-height:125%;font-family:sans-serif;letter-spacing:0px;word-spacing:0px;display:inline;fill:#000000;fill-opacity:1;stroke:none;stroke-width:1px;stroke-linecap:butt;stroke-linejoin:miter;stroke-opacity:1"
         x="403.16901"
         y="475.677"
         id="text4515-3"
         sodipodi:linespacing="125%"><tspan
           sodipodi:role="line"
           id="tspan4517-6"
           x="403.16901"
           y="475.677"
           style="font-size:25px">Frequency</tspan></text>
      <text
         sodipodi:linespacing="125%"
         id="text4779-7"
         y="514.7041"
         x="448.79892"
         style="font-style:normal;font-weight:normal;font-size:15px;line-height:125%;font-family:sans-serif;letter-spacing:0px;word-spacing:0px;display:inline;fill:#000000;fill-opacity:1;stroke:none;stroke-width:1px;stroke-linecap:butt;stroke-linejoin:miter;stroke-opacity:1"
         xml:space="preserve"><tspan
           style="font-style:normal;font-variant:normal;font-weight:bold;font-stretch:normal;font-size:25px;font-family:sans-serif;-inkscape-font-specification:'sans-serif Bold'"
           y="514.7041"
           x="448.79892"
           id="tspan4781-5"
           sodipodi:role="line">(b)</tspan></text>
    </g>
    <rect
       y="386.36014"
       x="89.292816"
       height="23.979748"
       width="49.520386"
       id="rect4873"
       style="fill:#ffffff;fill-opacity:1;stroke:none;stroke-width:1;stroke-miterlimit:4;stroke-dasharray:none;stroke-dashoffset:0;stroke-opacity:1" />
    <text
       sodipodi:linespacing="125%"
       id="text4875"
       y="406.46768"
       x="90.481232"
       style="font-style:normal;font-weight:normal;font-size:15px;line-height:125%;font-family:sans-serif;letter-spacing:0px;word-spacing:0px;fill:#000000;fill-opacity:1;stroke:none;stroke-width:1px;stroke-linecap:butt;stroke-linejoin:miter;stroke-opacity:1"
       xml:space="preserve"><tspan
         style="font-size:25px"
         y="406.46768"
         x="90.481232"
         id="tspan4877"
         sodipodi:role="line">-π/2</tspan></text>
  </g>
</svg>
