<?xml version="1.0" encoding="UTF-8" standalone="no"?>
<!-- Created with Inkscape (http://www.inkscape.org/) -->

<svg
   xmlns:dc="http://purl.org/dc/elements/1.1/"
   xmlns:cc="http://creativecommons.org/ns#"
   xmlns:rdf="http://www.w3.org/1999/02/22-rdf-syntax-ns#"
   xmlns:svg="http://www.w3.org/2000/svg"
   xmlns="http://www.w3.org/2000/svg"
   xmlns:sodipodi="http://sodipodi.sourceforge.net/DTD/sodipodi-0.dtd"
   xmlns:inkscape="http://www.inkscape.org/namespaces/inkscape"
   width="1000.0000pt"
   height="440.00000pt"
   id="svg1486"
   sodipodi:version="0.32"
   inkscape:version="0.91 r13725"
   sodipodi:docname="rlcnr.svg"
   version="1.1">
  <defs
     id="defs1488">
    <marker
       inkscape:stockid="Arrow2Lend"
       orient="auto"
       refY="0.0"
       refX="0.0"
       id="Arrow2Lend"
       style="overflow:visible;">
      <path
         sodipodi:nodetypes="cccc"
         id="path2265"
         style="font-size:12.0;fill-rule:evenodd;stroke-width:0.62500000;stroke-linejoin:round;"
         d="M 8.7185878,4.0337352 L -2.2072895,0.016013256 L 8.7185884,-4.0017078 C 6.9730900,-1.6296469 6.9831476,1.6157441 8.7185878,4.0337352 z "
         transform="scale(1.1) rotate(180) translate(-5,0)" />
    </marker>
    <marker
       inkscape:stockid="Arrow2Mend"
       orient="auto"
       refY="0.0"
       refX="0.0"
       id="Arrow2Mend"
       style="overflow:visible;">
      <path
         sodipodi:nodetypes="cccc"
         id="path2262"
         style="font-size:12.0;fill-rule:evenodd;stroke-width:0.62500000;stroke-linejoin:round;"
         d="M 8.7185878,4.0337352 L -2.2072895,0.016013256 L 8.7185884,-4.0017078 C 6.9730900,-1.6296469 6.9831476,1.6157441 8.7185878,4.0337352 z "
         transform="scale(0.6) rotate(180) translate(-5,0)" />
    </marker>
  </defs>
  <sodipodi:namedview
     id="base"
     pagecolor="#ffffff"
     bordercolor="#666666"
     borderopacity="1.0"
     inkscape:pageopacity="0.0"
     inkscape:pageshadow="2"
     inkscape:zoom="0.6456"
     inkscape:cx="625"
     inkscape:cy="275"
     inkscape:document-units="px"
     inkscape:current-layer="layer2"
     inkscape:window-width="1319"
     inkscape:window-height="744"
     inkscape:window-x="41"
     inkscape:window-y="24"
     showgrid="false"
     inkscape:window-maximized="1" />
  <metadata
     id="metadata1491">
    <rdf:RDF>
      <cc:Work
         rdf:about="">
        <dc:format>image/svg+xml</dc:format>
        <dc:type
           rdf:resource="http://purl.org/dc/dcmitype/StillImage" />
      </cc:Work>
    </rdf:RDF>
  </metadata>
  <g
     inkscape:label="Layer 1"
     inkscape:groupmode="layer"
     id="layer1"
     sodipodi:insensitive="true">
    <g
       style="color:#000000;fill:none;stroke:currentColor;stroke-width:1"
       id="g22"
       transform="translate(-4.197503,10.63753)" />
    <path
       style="color:#808080;fill:none;stroke:currentColor;stroke-width:1"
       id="path26"
       d="m 60.802488,454.6375 510.000002,0"
       inkscape:connector-curvature="0" />
    <path
       style="color:#000000;fill:none;stroke:currentColor;stroke-width:1"
       id="path30"
       d="m 60.802488,454.6375 9,0 m 501.000002,0 -9,0"
       inkscape:connector-curvature="0" />
    <path
       style="color:#808080;fill:none;stroke:currentColor;stroke-width:1;stroke-miterlimit:4;stroke-dasharray:1, 3;stroke-dashoffset:0"
       id="path38"
       d="m 60.802488,403.6375 510.000002,0"
       inkscape:connector-curvature="0" />
    <path
       style="color:#000000;fill:none;stroke:currentColor;stroke-width:1"
       id="path42"
       d="m 60.802488,403.6375 9,0 m 501.000002,0 -9,0"
       inkscape:connector-curvature="0" />
    <path
       style="color:#808080;fill:none;stroke:currentColor;stroke-width:1;stroke-miterlimit:4;stroke-dasharray:1, 3;stroke-dashoffset:0"
       id="path50"
       d="m 60.802488,352.6375 510.000002,0"
       inkscape:connector-curvature="0" />
    <path
       style="color:#000000;fill:none;stroke:currentColor;stroke-width:1"
       id="path54"
       d="m 60.802488,352.6375 9,0 m 501.000002,0 -9,0"
       inkscape:connector-curvature="0" />
    <path
       style="color:#808080;fill:none;stroke:currentColor;stroke-width:1;stroke-miterlimit:4;stroke-dasharray:1, 3;stroke-dashoffset:0"
       id="path62"
       d="m 60.802488,301.6375 510.000002,0"
       inkscape:connector-curvature="0" />
    <path
       style="color:#000000;fill:none;stroke:currentColor;stroke-width:1"
       id="path66"
       d="m 60.802488,301.6375 9,0 m 501.000002,0 -9,0"
       inkscape:connector-curvature="0" />
    <path
       style="color:#808080;fill:none;stroke:currentColor;stroke-width:1;stroke-miterlimit:4;stroke-dasharray:1, 3;stroke-dashoffset:0"
       id="path74"
       d="m 60.802488,250.6375 510.000002,0"
       inkscape:connector-curvature="0" />
    <path
       style="color:#000000;fill:none;stroke:currentColor;stroke-width:1"
       id="path78"
       d="m 60.802488,250.6375 9,0 m 501.000002,0 -9,0"
       inkscape:connector-curvature="0" />
    <path
       style="color:#808080;fill:none;stroke:currentColor;stroke-width:1;stroke-miterlimit:4;stroke-dasharray:1, 3;stroke-dashoffset:0"
       id="path86"
       d="m 60.802488,199.6375 510.000002,0"
       inkscape:connector-curvature="0" />
    <path
       style="color:#000000;fill:none;stroke:currentColor;stroke-width:1"
       id="path90"
       d="m 60.802488,199.6375 9,0 m 501.000002,0 -9,0"
       inkscape:connector-curvature="0" />
    <path
       style="color:#808080;fill:none;stroke:currentColor;stroke-width:1;stroke-miterlimit:4;stroke-dasharray:1, 3;stroke-dashoffset:0"
       id="path98"
       d="m 60.802488,148.6375 510.000002,0"
       inkscape:connector-curvature="0" />
    <path
       style="color:#000000;fill:none;stroke:currentColor;stroke-width:1"
       id="path102"
       d="m 60.802488,148.6375 9,0 m 501.000002,0 -9,0"
       inkscape:connector-curvature="0" />
    <path
       style="color:#808080;fill:none;stroke:currentColor;stroke-width:1;stroke-miterlimit:4;stroke-dasharray:1, 3;stroke-dashoffset:0"
       id="path110"
       d="m 60.802488,97.637499 510.000002,0"
       inkscape:connector-curvature="0" />
    <path
       style="color:#000000;fill:none;stroke:currentColor;stroke-width:1"
       id="path114"
       d="m 60.802488,97.637499 9,0 m 501.000002,0 -9,0"
       inkscape:connector-curvature="0" />
    <path
       style="color:#808080;fill:none;stroke:currentColor;stroke-width:1"
       id="path122"
       d="m 60.802488,46.637499 510.000002,0"
       inkscape:connector-curvature="0" />
    <path
       style="color:#000000;fill:none;stroke:currentColor;stroke-width:1"
       id="path126"
       d="m 60.802488,46.637499 9,0 m 501.000002,0 -9,0"
       inkscape:connector-curvature="0" />
    <path
       style="color:#808080;fill:none;stroke:currentColor;stroke-width:1"
       id="path134"
       d="m 60.802488,454.6375 0,-408.000001"
       inkscape:connector-curvature="0" />
    <path
       style="color:#000000;fill:none;stroke:currentColor;stroke-width:1"
       id="path138"
       d="m 60.802488,454.6375 0,-9 m 0,-399.000001 0,9"
       inkscape:connector-curvature="0" />
    <path
       style="color:#808080;fill:none;stroke:currentColor;stroke-width:1;stroke-miterlimit:4;stroke-dasharray:1, 3;stroke-dashoffset:0"
       id="path146"
       d="m 111.80249,454.6375 0,-408.000001"
       inkscape:connector-curvature="0" />
    <path
       style="color:#000000;fill:none;stroke:currentColor;stroke-width:1"
       id="path150"
       d="m 111.80249,454.6375 0,-9 m 0,-399.000001 0,9"
       inkscape:connector-curvature="0" />
    <path
       style="color:#808080;fill:none;stroke:currentColor;stroke-width:1;stroke-miterlimit:4;stroke-dasharray:1, 3;stroke-dashoffset:0"
       id="path158"
       d="m 162.80249,454.6375 0,-408.000001"
       inkscape:connector-curvature="0" />
    <path
       style="color:#000000;fill:none;stroke:currentColor;stroke-width:1"
       id="path162"
       d="m 162.80249,454.6375 0,-9 m 0,-399.000001 0,9"
       inkscape:connector-curvature="0" />
    <path
       style="color:#808080;fill:none;stroke:currentColor;stroke-width:1;stroke-miterlimit:4;stroke-dasharray:1, 3;stroke-dashoffset:0"
       id="path170"
       d="m 213.80249,454.6375 0,-408.000001"
       inkscape:connector-curvature="0" />
    <path
       style="color:#000000;fill:none;stroke:currentColor;stroke-width:1"
       id="path174"
       d="m 213.80249,454.6375 0,-9 m 0,-399.000001 0,9"
       inkscape:connector-curvature="0" />
    <path
       style="color:#808080;fill:none;stroke:currentColor;stroke-width:1;stroke-miterlimit:4;stroke-dasharray:1, 3;stroke-dashoffset:0"
       id="path182"
       d="m 264.80249,454.6375 0,-408.000001"
       inkscape:connector-curvature="0" />
    <path
       style="color:#000000;fill:none;stroke:currentColor;stroke-width:1"
       id="path186"
       d="m 264.80249,454.6375 0,-9 m 0,-399.000001 0,9"
       inkscape:connector-curvature="0" />
    <path
       style="color:#808080;fill:none;stroke:currentColor;stroke-width:1;stroke-miterlimit:4;stroke-dasharray:1, 3;stroke-dashoffset:0"
       id="path194"
       d="m 315.80249,454.6375 0,-408.000001"
       inkscape:connector-curvature="0" />
    <path
       style="color:#000000;fill:none;stroke:currentColor;stroke-width:1"
       id="path198"
       d="m 315.80249,454.6375 0,-9 m 0,-399.000001 0,9"
       inkscape:connector-curvature="0" />
    <path
       style="color:#808080;fill:none;stroke:currentColor;stroke-width:1;stroke-miterlimit:4;stroke-dasharray:1, 3;stroke-dashoffset:0"
       id="path206"
       d="m 366.80249,454.6375 0,-408.000001"
       inkscape:connector-curvature="0" />
    <path
       style="color:#000000;fill:none;stroke:currentColor;stroke-width:1"
       id="path210"
       d="m 366.80249,454.6375 0,-9 m 0,-399.000001 0,9"
       inkscape:connector-curvature="0" />
    <path
       style="color:#808080;fill:none;stroke:currentColor;stroke-width:1;stroke-miterlimit:4;stroke-dasharray:1, 3;stroke-dashoffset:0"
       id="path218"
       d="m 417.80249,454.6375 0,-408.000001"
       inkscape:connector-curvature="0" />
    <path
       style="color:#000000;fill:none;stroke:currentColor;stroke-width:1"
       id="path222"
       d="m 417.80249,454.6375 0,-9 m 0,-399.000001 0,9"
       inkscape:connector-curvature="0" />
    <path
       style="color:#808080;fill:none;stroke:currentColor;stroke-width:1;stroke-miterlimit:4;stroke-dasharray:1, 3;stroke-dashoffset:0"
       id="path230"
       d="m 468.80249,454.6375 0,-408.000001"
       inkscape:connector-curvature="0" />
    <path
       style="color:#000000;fill:none;stroke:currentColor;stroke-width:1"
       id="path234"
       d="m 468.80249,454.6375 0,-9 m 0,-399.000001 0,9"
       inkscape:connector-curvature="0" />
    <path
       style="color:#808080;fill:none;stroke:currentColor;stroke-width:1;stroke-miterlimit:4;stroke-dasharray:1, 3;stroke-dashoffset:0"
       id="path242"
       d="m 519.80249,454.6375 0,-408.000001"
       inkscape:connector-curvature="0" />
    <path
       style="color:#000000;fill:none;stroke:currentColor;stroke-width:1"
       id="path246"
       d="m 519.80249,454.6375 0,-9 m 0,-399.000001 0,9"
       inkscape:connector-curvature="0" />
    <path
       style="color:#808080;fill:none;stroke:currentColor;stroke-width:1"
       id="path254"
       d="m 570.80249,454.6375 0,-408.000001"
       inkscape:connector-curvature="0" />
    <path
       style="color:#000000;fill:none;stroke:currentColor;stroke-width:1"
       id="path258"
       d="m 570.80249,454.6375 0,-9 m 0,-399.000001 0,9"
       inkscape:connector-curvature="0" />
    <path
       style="color:#000000;fill:none;stroke:currentColor;stroke-width:1"
       id="path264"
       d="m 60.802488,454.6375 510.000002,0 0,-408.000001 -510.000002,0 0,408.000001"
       inkscape:connector-curvature="0" />
    <path
       style="color:#000000;fill:none;stroke:currentColor;stroke-width:3;stroke-miterlimit:4;stroke-dasharray:none"
       id="path276"
       d="m 60.394148,454.6375 510.000012,0 0,-408.000001 -510.000012,0 0,408.000001"
       inkscape:connector-curvature="0" />
    <g
       style="color:#ff0000;fill:none;stroke:#000000;stroke-width:2.5;stroke-miterlimit:4;stroke-dasharray:none;stroke-opacity:1"
       id="g11483"
       transform="translate(-4.605803,10.63753)">
      <path
         d="m 65,102 1,-1 0,-2 1,-1 0,-1 1,-2 0,-1 1,-1 0,-2 1,-1 0,-1 1,-2 0,-1 1,-1 0,-1 1,-1 0,-1 1,-1 0,-2 1,-1 0,-1 1,-1 0,-1 1,-1 0,-1 1,0 0,-1 1,-1 0,-1 1,-1 0,-1 1,0 0,-1 1,-1 0,-1 1,0 0,-1 1,0 0,-1 1,-1 1,-1 1,-1 1,-1 1,0 1,-1 1,0 1,-1 1,0 1,0 1,-1 1,0 1,0 1,1 1,0 1,0 1,1 1,0 1,1 1,1 1,0 0,1 1,0 0,1 1,0 0,1 1,1 1,1 0,1 1,0 0,1 1,1 0,1 1,0 0,1 1,1 0,1 1,1 1,1 0,1 1,1 0,1 1,1 0,1 1,1 0,1 1,1 0,1 1,1 0,1 1,2 0,1 1,1 0,1 1,1 0,2 1,1 0,1 1,2 0,1 1,2 0,1 1,1 0,2 1,1 0,2 1,1 0,2 1,2 0,1 1,2 0,1 1,2 0,2 1,1 0,2 1,2 0,1 1,2 0,2 1,2 0,1 1,2 0,2 1,2 1,2 0,2 1,1 0,2 1,2 0,2 1,2 0,2 1,2 0,2 1,2 0,2 1,2 0,2 1,2 0,2 1,2 0,2 1,2 0,2 1,2 0,2 1,2 0,2 1,2 0,3 1,2 0,2 1,2 0,2 1,2 0,2 1,2 0,3 1,2 0,2 1,2 0,2 1,2 0,3 1,2 0,2 1,2 0,2 1,3 0,2 1,2 1,2 0,2 1,3 0,2 1,2 0,2 1,2 0,2 1,3 0,2 1,2 0,2 1,2 0,3 1,2 0,2 1,2 0,2 1,2 0,3 1,2 0,2 1,2 0,2 1,2 0,2 1,2 0,2 1,3 0,2 1,2 0,2 1,2 0,2 1,2 0,2 1,2 0,2 1,2 0,2 1,2 0,2 1,2 0,2 1,2 0,1 1,2 1,2 0,2 1,2 0,2 1,2 0,1 1,2 0,2 1,2 0,1 1,2 0,2 1,2 0,1 1,2 0,2 1,1 0,2 1,1 0,2 1,1 0,2 1,2 0,1 1,2 0,1 1,1 0,2 1,1 0,2 1,1 0,1 1,2 0,1 1,1 0,1 1,2 0,1 1,1 0,1 1,1 0,1 1,2 0,1 1,1 0,1 1,1 0,1 1,1 1,1 0,1 1,0 0,1 1,1 0,1 1,1 1,1 0,1 1,1 1,1 0,1 1,0 0,1 1,0 0,1 1,0 0,1 1,0 0,1 1,0 1,1 1,0 1,1 1,0 1,0 1,1 1,0 1,0 1,-1 1,0 1,0 1,-1 1,0 1,-1 1,0 0,-1 1,0 1,-1 1,-1 0,-1 1,0 0,-1 1,0 0,-1 1,-1 1,-1 0,-1 1,-1 1,-1 0,-1 1,-1 0,-1 1,-1 0,-1 1,-1 0,-1 1,-1 0,-1 1,-1 0,-1 1,-1 0,-1 1,-1 0,-1 1,-2 0,-1 1,-1 0,-1 1,-2 0,-1 1,-1 0,-2 1,-1 1,-1 0,-2 1,-1 0,-2 1,-1 0,-2 1,-1 0,-2 1,-1 0,-2 1,-1 0,-2 1,-2 0,-1 1,-2 0,-1 1,-2 0,-2 1,-2 0,-1 1,-2 0,-2 1,-2 0,-1 1,-2 0,-2 1,-2 0,-2 1,-2 0,-1 1,-2 0,-2 1,-2 0,-2 1,-2 0,-2 1,-2 0,-2 1,-2 0,-2 1,-2 0,-2 1,-2 0,-2 1,-2 0,-2 1,-2 0,-2 1,-2 1,-3 0,-2 1,-2 0,-2 1,-2 0,-2 1,-2 0,-2 1,-3 0,-2 1,-2 0,-2 1,-2 0,-2 1,-3 0,-2 1,-2 0,-2 1,-2 0,-2 1,-3 0,-2 1,-2 0,-2 1,-2 0,-3 1,-2 0,-2 1,-2 0,-2 1,-3 0,-2 1,-2 0,-2 1,-2 0,-2 1,-3 0,-2 1,-2 0,-2 1,-2 0,-2 1,-3 0,-2 1,-2 0,-2 1,-2 1,-2 0,-2 1,-2 0,-3 1,-2 0,-2 1,-2 0,-2 1,-2 0,-2 1,-2 0,-2 1,-2 0,-2 1,-2 0,-2 1,-2 0,-2 1,-2 0,-2 1,-2 0,-2 1,-2 0,-2 1,-1 0,-2 1,-2 0,-2 1,-2 0,-2 1,-1 0,-2 1,-2 0,-2 1,-1 0,-2 1,-2 0,-1 1,-2 0,-2 1,-1 0,-2 1,-2 0,-1 1,-2 0,-1 1,-2 1,-1 0,-2 1,-1 0,-2 1,-1 0,-1 1,-2 0,-1 1,-1 0,-2 1,-1 0,-1 1,-2 0,-1 1,-1 0,-1 1,-1 0,-1 1,-2 0,-1 1,-1 0,-1 1,-1 0,-1 1,-1 0,-1 1,-1 0,-1 1,0 0,-1 1,-1 0,-1 1,-1 0,-1 1,0 0,-1 1,-1 1,-1 0,-1 1,0 0,-1 1,0 0,-1 1,0 0,-1 1,0 1,-1 1,0 0,-1 1,0 1,0 0,-1 1,0 1,0 1,0 0,-1 1,0 1,0 1,1 1,0 1,0 1,0 0,1 1,0 1,1 1,0 0,1 1,0 0,1 1,0 0,1 1,0 0,1 1,0 0,1 1,0 0,1 1,1 1,1 0,1 1,1 0,1 1,0 1,1 0,1 1,1 0,1 1,1 0,1 1,1 0,1 1,1 0,1 1,1 0,1 1,1 0,1 1,2 0,1 1,1 0,1 1,1 0,2 1,1 0,1 1,2 0,1 1,2 0,1 1,1 0,2 1,1 0,2 1,1 0,2 1,1 0,2 1,1 0,2 1,2 0,1 1,2 0,2 1,1 0,2 1,2 0,1 1,2 0,2 1,2 1,2 0,1 1,2 0,2 1,2 0,2 1,2 0,2 1,1 0,2 1,2 0,2 1,2 0,2 1,2 0,2 1,2 0,2 1,2 0,2 1,2 0,2 1,2 0,2 1,3 0,2 1,2 0,2 1,2 0,2 1,2 0,2 1,2 0,3 1,2 0,2 1,2 0,2 1,2 0,3 1,2 0,2 1,2 0,2 1,2 0,3 1,2 1,2 0,2 1,2 0,3 1,2 0,2 1,2 0,2 1,3 0,2 1,2 0,2 1,2 0,3 1,2 0,2 1,2 0,2 1,2 0,3 1,2 0,2 1,2 0,2 1,2 0,2 1,2 0,3 1,2 0,2 1,2 0,2 1,2 0,2 1,2 0,2 1,2 0,2 1,2 0,2 1,2 0,2 1,2 0,2 1,2 0,2 1,2 0,2 1,2 1,2 0,2 1,1 0,2 1,2 0,2 1,2 0,2 1,1 0,2 1,2 0,2 1,1 0,2 1,2 0,1 1,2 0,2 1,1 0,2 1,1 0,2 1,1 0,2 1,1 0,2 1,1 0,2 1,1 0,2 1,1 0,1 1,2 0,1 1,1 0,1 1,2 0,1 1,1 0,1 1,1 0,2 1,1 0,1 1,1 0,1 1,1 1,1 0,1 1,1 0,1 1,1 0,1 1,0 0,1 1,1 0,1 1,1 1,1 0,1 1,0 0,1 1,1 1,1 1,1 1,1 1,1 1,0 0,1 1,0 1,1 1,0 1,0 1,0 0,1 1,0 1,0 1,-1 1,0 1,0 1,0 1,-1 1,0 0,-1 1,0 1,-1 1,-1 1,-1 1,-1 1,-1 1,-1 0,-1 1,-1 1,-1 0,-1 1,-1 1,-1 0,-1 1,-1 0,-1 1,-1 0,-1 1,-1 0,-1 1,-1 0,-1 1,-1 0,-1 1,-1 0,-2 1,-1 0,-1 1,-1 0,-1 1,-2 0,-1 1,-1 1,-2 0,-1 1,-1 0,-2 1,-1 0,-1 1,-2 0,-1 1,-2 0,-1 1,-2 0,-1 1,-2 0,-2 1,-1 0,-2 1,-1 0,-2 1,-2 0,-1 1,-2 0,-2 1,-2 0,-1 1,-2 0,-2 1,-2 0,-2 1,-1 0,-2 1,-2 0,-2 1,-2 0,-2 1,-2 0,-2 1,-2 0,-1 1,-2 0,-2 1,-2 0,-2 1,-2 0,-2 1,-2 0,-2 1,-3 0,-2 1,-2 1,-2 0,-2 1,-2 0,-2 1,-2 0,-2 1,-2 0,-2 1,-3 0,-2 1,-2 0,-2 1,-2 0,-2 1,-2 0,-3 1,-2 0,-2 1,-2 0,-2 1,-3 0,-2 1,-2 0,-2 1,-2 0,-2 1,-3 0,-2 1,-2 0,-2 1,-2 0,-3 1,-2 0,-2 1,-2 0,-2 1,-3 0,-2 1,-2 0,-2 1,-2 0,-2 1,-3 0,-2 1,-2 0,-2 1,-2"
         id="path11485"
         style="stroke:#000000;stroke-width:2.5;stroke-miterlimit:4;stroke-dasharray:none;stroke-opacity:1"
         inkscape:connector-curvature="0" />
    </g>
    <g
       style="color:#008000;fill:none;stroke:#ff0000;stroke-width:2.5;stroke-miterlimit:4;stroke-dasharray:none;stroke-opacity:1"
       id="g11487"
       transform="translate(-4.605803,10.63753)">
      <path
         d="m 65,202 1,-2 0,-2 1,-2 0,-2 1,-2 0,-2 1,-2 0,-2 1,-2 0,-2 1,-2 0,-2 1,-2 0,-2 1,-2 0,-1 1,-2 0,-2 1,-2 0,-2 1,-2 0,-2 1,-1 0,-2 1,-2 0,-2 1,-2 0,-1 1,-2 0,-2 1,-2 0,-1 1,-2 0,-2 1,-1 0,-2 1,-2 0,-1 1,-2 0,-2 1,-1 0,-2 1,-1 0,-2 1,-1 0,-2 1,-1 1,-2 0,-1 1,-2 0,-1 1,-1 0,-2 1,-1 0,-1 1,-2 0,-1 1,-1 0,-2 1,-1 0,-1 1,-1 0,-1 1,-2 0,-1 1,-1 0,-1 1,-1 0,-1 1,-1 0,-1 1,-1 0,-1 1,-1 0,-1 1,-1 0,-1 1,0 0,-1 1,-1 0,-1 1,-1 1,-1 0,-1 1,0 0,-1 1,-1 1,-1 1,-1 1,-1 1,-1 1,0 0,-1 1,0 1,-1 1,0 1,-1 1,0 1,0 1,0 1,0 1,0 1,0 1,0 1,0 0,1 1,0 1,0 0,1 1,0 1,1 1,1 1,1 1,1 1,1 1,1 0,1 1,0 0,1 1,1 1,0 0,1 1,1 0,1 1,1 1,1 0,1 1,1 0,1 1,1 0,1 1,1 0,1 1,1 0,1 1,1 0,1 1,2 0,1 1,1 0,1 1,1 0,2 1,1 0,1 1,1 0,2 1,1 0,1 1,2 0,1 1,1 0,2 1,1 0,2 1,1 0,2 1,1 0,2 1,1 0,2 1,2 0,1 1,2 0,1 1,2 1,2 0,1 1,2 0,2 1,1 0,2 1,2 0,2 1,1 0,2 1,2 0,2 1,2 0,1 1,2 0,2 1,2 0,2 1,2 0,2 1,2 0,1 1,2 0,2 1,2 0,2 1,2 0,2 1,2 0,2 1,2 0,2 1,2 0,2 1,2 0,2 1,2 0,2 1,2 0,2 1,2 0,2 1,2 0,2 1,3 0,2 1,2 1,2 0,2 1,2 0,2 1,2 0,2 1,2 0,2 1,2 0,2 1,2 0,2 1,3 0,2 1,2 0,2 1,2 0,2 1,2 0,2 1,2 0,2 1,2 0,2 1,2 0,2 1,2 0,2 1,2 0,2 1,2 0,2 1,2 0,2 1,2 0,2 1,2 0,2 1,2 0,2 1,2 0,2 1,2 0,1 1,2 0,2 1,2 0,2 1,2 1,1 0,2 1,2 0,2 1,2 0,1 1,2 0,2 1,2 0,1 1,2 0,2 1,1 0,2 1,2 0,1 1,2 0,1 1,2 0,1 1,2 0,1 1,2 0,1 1,2 0,1 1,2 0,1 1,2 0,1 1,1 0,2 1,1 0,1 1,1 0,2 1,1 0,1 1,1 0,2 1,1 0,1 1,1 0,1 1,1 0,1 1,1 1,1 0,1 1,1 0,1 1,1 0,1 1,1 0,1 1,0 0,1 1,1 0,1 1,0 0,1 1,1 0,1 1,0 0,1 1,0 0,1 1,1 1,1 1,0 0,1 1,0 0,1 1,0 1,1 1,0 1,1 1,0 1,0 1,0 1,0 1,0 1,0 1,0 1,0 1,-1 1,0 1,-1 1,0 0,-1 1,0 0,-1 1,0 0,-1 1,0 0,-1 1,0 0,-1 1,0 0,-1 1,-1 1,-1 0,-1 1,0 0,-1 1,-1 0,-1 1,-1 0,-1 1,0 0,-1 1,-1 0,-1 1,-1 0,-1 1,-1 0,-1 1,-1 0,-1 1,-1 0,-2 1,-1 0,-1 1,-1 0,-1 1,-1 1,-2 0,-1 1,-1 0,-1 1,-2 0,-1 1,-1 0,-2 1,-1 0,-2 1,-1 0,-2 1,-1 0,-1 1,-2 0,-1 1,-2 0,-2 1,-1 0,-2 1,-1 0,-2 1,-2 0,-1 1,-2 0,-2 1,-1 0,-2 1,-2 0,-1 1,-2 0,-2 1,-2 0,-1 1,-2 0,-2 1,-2 0,-2 1,-1 0,-2 1,-2 0,-2 1,-2 0,-2 1,-2 0,-2 1,-2 1,-2 0,-1 1,-2 0,-2 1,-2 0,-2 1,-2 0,-2 1,-2 0,-2 1,-2 0,-2 1,-2 0,-2 1,-2 0,-2 1,-2 0,-3 1,-2 0,-2 1,-2 0,-2 1,-2 0,-2 1,-2 0,-2 1,-2 0,-2 1,-2 0,-2 1,-2 0,-2 1,-2 0,-3 1,-2 0,-2 1,-2 0,-2 1,-2 0,-2 1,-2 0,-2 1,-2 0,-2 1,-2 0,-2 1,-2 1,-2 0,-2 1,-2 0,-2 1,-2 0,-2 1,-2 0,-2 1,-2 0,-2 1,-2 0,-2 1,-2 0,-2 1,-2 0,-2 1,-2 0,-2 1,-2 0,-2 1,-2 0,-1 1,-2 0,-2 1,-2 0,-2 1,-2 0,-1 1,-2 0,-2 1,-2 0,-2 1,-1 0,-2 1,-2 0,-1 1,-2 0,-2 1,-1 0,-2 1,-2 0,-1 1,-2 0,-1 1,-2 0,-2 1,-1 1,-2 0,-1 1,-2 0,-1 1,-1 0,-2 1,-1 0,-2 1,-1 0,-1 1,-2 0,-1 1,-1 0,-2 1,-1 0,-1 1,-1 0,-1 1,-2 0,-1 1,-1 0,-1 1,-1 0,-1 1,-1 0,-1 1,-1 0,-1 1,-1 0,-1 1,-1 0,-1 1,-1 0,-1 1,0 0,-1 1,-1 0,-1 1,-1 1,-1 0,-1 1,0 0,-1 1,0 0,-1 1,-1 1,-1 1,0 0,-1 1,0 1,-1 1,0 0,-1 1,0 1,0 0,-1 1,0 1,0 1,0 1,0 1,0 1,0 1,0 1,0 1,1 1,0 1,1 1,0 0,1 1,0 0,1 1,0 0,1 1,0 0,1 1,0 0,1 1,0 0,1 1,1 1,0 0,1 1,1 0,1 1,0 0,1 1,1 0,1 1,1 1,1 0,1 1,1 0,1 1,1 0,1 1,1 0,1 1,1 0,2 1,1 0,1 1,1 0,1 1,1 0,2 1,1 0,1 1,1 0,2 1,1 0,1 1,2 0,1 1,1 0,2 1,1 0,2 1,1 0,2 1,1 0,2 1,1 0,2 1,1 0,2 1,1 1,2 0,2 1,1 0,2 1,2 0,1 1,2 0,2 1,2 0,1 1,2 0,2 1,2 0,1 1,2 0,2 1,2 0,2 1,2 0,1 1,2 0,2 1,2 0,2 1,2 0,2 1,2 0,2 1,2 0,2 1,2 0,2 1,2 0,2 1,2 0,2 1,2 0,2 1,2 0,2 1,2 0,2 1,2 0,2 1,2 0,2 1,2 0,2 1,2 1,2 0,2 1,2 0,2 1,2 0,2 1,2 0,3 1,2 0,2 1,2 0,2 1,2 0,2 1,2 0,2 1,2 0,2 1,2 0,2 1,2 0,2 1,2 0,3 1,2 0,2 1,2 0,2 1,2 0,2 1,2 0,2 1,2 0,2 1,2 0,2 1,1 0,2 1,2 0,2 1,2 0,2 1,2 0,2 1,2 0,2 1,2 1,1 0,2 1,2 0,2 1,2 0,1 1,2 0,2 1,2 0,1 1,2 0,2 1,2 0,1 1,2 0,2 1,1 0,2 1,1 0,2 1,2 0,1 1,2 0,1 1,2 0,1 1,2 0,1 1,2 0,1 1,1 0,2 1,1 0,2 1,1 0,1 1,1 0,2 1,1 0,1 1,1 0,2 1,1 0,1 1,1 0,1 1,1 1,1 0,1 1,1 0,1 1,1 0,1 1,1 0,1 1,1 0,1 1,1 0,1 1,0 0,1 1,1 0,1 1,0 0,1 1,1 1,1 0,1 1,0 0,1 1,0 0,1 1,0 0,1 1,0 1,1 1,0 0,1 1,0 1,0 0,1 1,0 1,0 1,0 1,0 1,0 1,0 1,0 1,0 1,0 0,-1 1,0 1,0 0,-1 1,0 0,-1 1,0 1,-1 1,-1 1,-1 1,-1 1,-1 0,-1 1,0 0,-1 1,-1 0,-1 1,0 0,-1 1,-1 0,-1 1,-1 0,-1 1,0 0,-1 1,-1 0,-1 1,-1 0,-1 1,-1 0,-1 1,-2 0,-1 1,-1 0,-1 1,-1 1,-1 0,-1 1,-2 0,-1 1,-1 0,-1 1,-2 0,-1 1,-1 0,-2 1,-1 0,-2 1,-1 0,-1 1,-2 0,-1 1,-2 0,-1 1,-2 0,-1 1,-2 0,-1 1,-2 0,-2 1,-1 0,-2 1,-2 0,-1 1,-2 0,-2 1,-1 0,-2 1,-2 0,-1 1,-2 0,-2 1,-2 0,-2 1,-1 0,-2 1,-2 0,-2 1,-2 0,-2 1,-1 0,-2 1,-2"
         id="path11489"
         style="stroke:#ff0000;stroke-width:2.5;stroke-miterlimit:4;stroke-dasharray:none;stroke-opacity:1"
         inkscape:connector-curvature="0" />
    </g>
    <g
       style="color:#000000;fill:none;stroke:currentColor;stroke-width:1"
       id="g1554"
       transform="translate(642.5091,9.344319)" />
    <path
       style="color:#808080;fill:none;stroke:currentColor;stroke-width:1"
       id="path1556"
       d="m 654.38877,454.554 510.00003,0"
       inkscape:connector-curvature="0" />
    <path
       style="color:#000000;fill:none;stroke:currentColor;stroke-width:1"
       id="path1558"
       d="m 654.38877,454.554 9,0 m 501.00003,0 -9,0"
       inkscape:connector-curvature="0" />
    <path
       style="color:#808080;fill:none;stroke:currentColor;stroke-width:1;stroke-miterlimit:4;stroke-dasharray:1, 3;stroke-dashoffset:0"
       id="path1560"
       d="m 654.38877,403.554 510.00003,0"
       inkscape:connector-curvature="0" />
    <path
       style="color:#000000;fill:none;stroke:currentColor;stroke-width:1"
       id="path1562"
       d="m 654.38877,403.554 9,0 m 501.00003,0 -9,0"
       inkscape:connector-curvature="0" />
    <path
       style="color:#808080;fill:none;stroke:currentColor;stroke-width:1;stroke-miterlimit:4;stroke-dasharray:1, 3;stroke-dashoffset:0"
       id="path1564"
       d="m 654.38877,352.554 510.00003,0"
       inkscape:connector-curvature="0" />
    <path
       style="color:#000000;fill:none;stroke:currentColor;stroke-width:1"
       id="path1566"
       d="m 654.38877,352.554 9,0 m 501.00003,0 -9,0"
       inkscape:connector-curvature="0" />
    <path
       style="color:#808080;fill:none;stroke:currentColor;stroke-width:1;stroke-miterlimit:4;stroke-dasharray:1, 3;stroke-dashoffset:0"
       id="path1568"
       d="m 654.38877,301.554 510.00003,0"
       inkscape:connector-curvature="0" />
    <path
       style="color:#000000;fill:none;stroke:currentColor;stroke-width:1"
       id="path1570"
       d="m 654.38877,301.554 9,0 m 501.00003,0 -9,0"
       inkscape:connector-curvature="0" />
    <path
       style="color:#808080;fill:none;stroke:currentColor;stroke-width:1;stroke-miterlimit:4;stroke-dasharray:1, 3;stroke-dashoffset:0"
       id="path1572"
       d="m 654.38877,250.554 510.00003,0"
       inkscape:connector-curvature="0" />
    <path
       style="color:#000000;fill:none;stroke:currentColor;stroke-width:1"
       id="path1574"
       d="m 654.38877,250.554 9,0 m 501.00003,0 -9,0"
       inkscape:connector-curvature="0" />
    <path
       style="color:#808080;fill:none;stroke:currentColor;stroke-width:1;stroke-miterlimit:4;stroke-dasharray:1, 3;stroke-dashoffset:0"
       id="path1576"
       d="m 654.38877,199.554 510.00003,0"
       inkscape:connector-curvature="0" />
    <path
       style="color:#000000;fill:none;stroke:currentColor;stroke-width:1"
       id="path1578"
       d="m 654.38877,199.554 9,0 m 501.00003,0 -9,0"
       inkscape:connector-curvature="0" />
    <path
       style="color:#808080;fill:none;stroke:currentColor;stroke-width:1;stroke-miterlimit:4;stroke-dasharray:1, 3;stroke-dashoffset:0"
       id="path1580"
       d="m 654.38877,148.554 510.00003,0"
       inkscape:connector-curvature="0" />
    <path
       style="color:#000000;fill:none;stroke:currentColor;stroke-width:1"
       id="path1582"
       d="m 654.38877,148.554 9,0 m 501.00003,0 -9,0"
       inkscape:connector-curvature="0" />
    <path
       style="color:#808080;fill:none;stroke:currentColor;stroke-width:1;stroke-miterlimit:4;stroke-dasharray:1, 3;stroke-dashoffset:0"
       id="path1584"
       d="m 654.38877,97.553993 510.00003,0"
       inkscape:connector-curvature="0" />
    <path
       style="color:#000000;fill:none;stroke:currentColor;stroke-width:1"
       id="path1586"
       d="m 654.38877,97.553993 9,0 m 501.00003,0 -9,0"
       inkscape:connector-curvature="0" />
    <path
       style="color:#808080;fill:none;stroke:currentColor;stroke-width:1"
       id="path1588"
       d="m 654.38877,46.553993 510.00003,0"
       inkscape:connector-curvature="0" />
    <path
       style="color:#000000;fill:none;stroke:currentColor;stroke-width:1"
       id="path1590"
       d="m 654.38877,46.553993 9,0 m 501.00003,0 -9,0"
       inkscape:connector-curvature="0" />
    <path
       style="color:#808080;fill:none;stroke:currentColor;stroke-width:1"
       id="path1592"
       d="m 654.38877,454.554 0,-408.000007"
       inkscape:connector-curvature="0" />
    <path
       style="color:#000000;fill:none;stroke:currentColor;stroke-width:1"
       id="path1594"
       d="m 654.38877,454.554 0,-9 m 0,-399.000007 0,9"
       inkscape:connector-curvature="0" />
    <path
       style="color:#808080;fill:none;stroke:currentColor;stroke-width:1;stroke-miterlimit:4;stroke-dasharray:1, 3;stroke-dashoffset:0"
       id="path1596"
       d="m 705.38877,454.554 0,-408.000007"
       inkscape:connector-curvature="0" />
    <path
       style="color:#000000;fill:none;stroke:currentColor;stroke-width:1"
       id="path1598"
       d="m 705.38877,454.554 0,-9 m 0,-399.000007 0,9"
       inkscape:connector-curvature="0" />
    <path
       style="color:#808080;fill:none;stroke:currentColor;stroke-width:1;stroke-miterlimit:4;stroke-dasharray:1, 3;stroke-dashoffset:0"
       id="path1600"
       d="m 756.38877,454.554 0,-408.000007"
       inkscape:connector-curvature="0" />
    <path
       style="color:#000000;fill:none;stroke:currentColor;stroke-width:1"
       id="path1602"
       d="m 756.38877,454.554 0,-9 m 0,-399.000007 0,9"
       inkscape:connector-curvature="0" />
    <path
       style="color:#808080;fill:none;stroke:currentColor;stroke-width:1;stroke-miterlimit:4;stroke-dasharray:1, 3;stroke-dashoffset:0"
       id="path1604"
       d="m 807.38877,454.554 0,-408.000007"
       inkscape:connector-curvature="0" />
    <path
       style="color:#000000;fill:none;stroke:currentColor;stroke-width:1"
       id="path1606"
       d="m 807.38877,454.554 0,-9 m 0,-399.000007 0,9"
       inkscape:connector-curvature="0" />
    <path
       style="color:#808080;fill:none;stroke:currentColor;stroke-width:1;stroke-miterlimit:4;stroke-dasharray:1, 3;stroke-dashoffset:0"
       id="path1608"
       d="m 858.38877,454.554 0,-408.000007"
       inkscape:connector-curvature="0" />
    <path
       style="color:#000000;fill:none;stroke:currentColor;stroke-width:1"
       id="path1610"
       d="m 858.38877,454.554 0,-9 m 0,-399.000007 0,9"
       inkscape:connector-curvature="0" />
    <path
       style="color:#808080;fill:none;stroke:currentColor;stroke-width:1;stroke-miterlimit:4;stroke-dasharray:1, 3;stroke-dashoffset:0"
       id="path1612"
       d="m 909.38877,454.554 0,-408.000007"
       inkscape:connector-curvature="0" />
    <path
       style="color:#000000;fill:none;stroke:currentColor;stroke-width:1"
       id="path1614"
       d="m 909.38877,454.554 0,-9 m 0,-399.000007 0,9"
       inkscape:connector-curvature="0" />
    <path
       style="color:#808080;fill:none;stroke:currentColor;stroke-width:1;stroke-miterlimit:4;stroke-dasharray:1, 3;stroke-dashoffset:0"
       id="path1616"
       d="m 960.38877,454.554 0,-408.000007"
       inkscape:connector-curvature="0" />
    <path
       style="color:#000000;fill:none;stroke:currentColor;stroke-width:1"
       id="path1618"
       d="m 960.38877,454.554 0,-9 m 0,-399.000007 0,9"
       inkscape:connector-curvature="0" />
    <path
       style="color:#808080;fill:none;stroke:currentColor;stroke-width:1;stroke-miterlimit:4;stroke-dasharray:1, 3;stroke-dashoffset:0"
       id="path1620"
       d="m 1011.3888,454.554 0,-408.000007"
       inkscape:connector-curvature="0" />
    <path
       style="color:#000000;fill:none;stroke:currentColor;stroke-width:1"
       id="path1622"
       d="m 1011.3888,454.554 0,-9 m 0,-399.000007 0,9"
       inkscape:connector-curvature="0" />
    <path
       style="color:#808080;fill:none;stroke:currentColor;stroke-width:1;stroke-miterlimit:4;stroke-dasharray:1, 3;stroke-dashoffset:0"
       id="path1624"
       d="m 1062.3888,454.554 0,-408.000007"
       inkscape:connector-curvature="0" />
    <path
       style="color:#000000;fill:none;stroke:currentColor;stroke-width:1"
       id="path1626"
       d="m 1062.3888,454.554 0,-9 m 0,-399.000007 0,9"
       inkscape:connector-curvature="0" />
    <path
       style="color:#808080;fill:none;stroke:currentColor;stroke-width:1;stroke-miterlimit:4;stroke-dasharray:1, 3;stroke-dashoffset:0"
       id="path1628"
       d="m 1113.3888,454.554 0,-408.000007"
       inkscape:connector-curvature="0" />
    <path
       style="color:#000000;fill:none;stroke:currentColor;stroke-width:1"
       id="path1630"
       d="m 1113.3888,454.554 0,-9 m 0,-399.000007 0,9"
       inkscape:connector-curvature="0" />
    <path
       style="color:#808080;fill:none;stroke:currentColor;stroke-width:1"
       id="path1632"
       d="m 1164.3888,454.554 0,-408.000007"
       inkscape:connector-curvature="0" />
    <path
       style="color:#000000;fill:none;stroke:currentColor;stroke-width:1"
       id="path1634"
       d="m 1164.3888,454.554 0,-9 m 0,-399.000007 0,9"
       inkscape:connector-curvature="0" />
    <path
       style="color:#000000;fill:none;stroke:currentColor;stroke-width:1"
       id="path1636"
       d="m 654.38877,454.554 510.00003,0 0,-408.000007 -510.00003,0 0,408.000007"
       inkscape:connector-curvature="0" />
    <path
       style="color:#000000;fill:none;stroke:currentColor;stroke-width:3;stroke-miterlimit:4;stroke-dasharray:none"
       id="path1638"
       d="m 654.38877,454.554 510.00003,0 0,-408.000007 -510.00003,0 0,408.000007"
       inkscape:connector-curvature="0" />
    <g
       style="color:#ff0000;fill:none;stroke:currentColor;stroke-width:2.58541322;stroke-miterlimit:4;stroke-dasharray:none"
       id="g12383"
       transform="matrix(1,0,0,0.935018,589.3888,10.72188)">
      <path
         d="m 548,116 1,-3 0,-3 0,-3 0,-2 0,-3 0,-2 0,-3 -1,-2 0,-2 -1,-2 -1,-3 -1,-1 -1,-2 -1,-2 -2,-2 -1,-1 -2,-2 -1,-1 -2,-1 -2,-1 -2,-1 -3,-1 -2,-1 -2,-1 -3,0 -3,-1 -3,0 -3,-1 -3,0 -3,0 -3,0 -3,0 -4,1 -3,0 -4,0 -4,1 -4,1 -4,0 -4,1 -4,1 -4,1 -4,1 -5,2 -4,1 -5,2 -4,1 -5,2 -5,2 -4,2 -5,2 -5,2 -5,2 -5,2 -5,3 -5,2 -6,3 -5,2 -5,3 -5,3 -6,3 -5,3 -5,3 -6,3 -5,3 -6,3 -5,4 -6,3 -5,4 -6,3 -5,4 -6,3 -5,4 -5,4 -6,4 -5,4 -6,4 -5,4 -6,4 -5,4 -5,4 -6,4 -5,4 -5,5 -5,4 -5,4 -6,5 -5,4 -5,4 -4,5 -5,4 -5,5 -5,4 -5,4 -4,5 -5,4 -4,5 -5,4 -4,5 -4,4 -4,5 -4,4 -4,5 -4,4 -4,5 -4,4 -3,4 -4,5 -3,4 -3,4 -4,4 -3,5 -3,4 -3,4 -2,4 -3,4 -2,4 -3,4 -2,4 -2,4 -2,4 -2,3 -2,4 -2,4 -1,3 -2,4 -1,3 -1,3 -1,4 -1,3 -1,3 0,3 -1,3 0,3 0,3 0,2 0,3 0,2 0,3 0,2 1,2 1,3 0,2 1,2 1,2 2,1 1,2 1,2 2,1 2,2 1,1 2,1 2,1 3,1 2,1 2,1 3,0 3,1 2,0 3,1 3,0 3,0 3,0 4,0 3,0 4,-1 3,0 4,-1 4,0 4,-1 4,-1 4,-1 4,-1 4,-1 5,-1 4,-1 5,-2 4,-1 5,-2 4,-2 5,-2 5,-2 5,-2 5,-2 5,-2 5,-2 5,-3 5,-2 5,-3 6,-3 5,-2 5,-3 6,-3 5,-3 5,-3 6,-3 5,-4 6,-3 5,-3 6,-4 5,-3 6,-4 5,-4 6,-3 5,-4 5,-4 6,-4 5,-4 6,-4 5,-4 6,-4 5,-4 5,-4 6,-4 5,-5 5,-4 5,-4 5,-4 5,-5 5,-4 5,-5 5,-4 5,-4 5,-5 5,-4 4,-5 5,-4 4,-5 5,-4 4,-5 4,-4 4,-5 5,-4 4,-5 4,-4 3,-4 4,-5 4,-4 3,-5 4,-4 3,-4 3,-4 3,-5 3,-4 3,-4 3,-4 3,-4 2,-4 3,-4 2,-4 2,-4 2,-4 2,-4 2,-3 2,-4 1,-3 2,-4 1,-3 1,-4 2,-3 0,-3 1,-3 1,-3 1,-3 0,-3 0,-3 0,-3 0,-3 0,-2 0,-3 0,-2 -1,-2 0,-3 -1,-2 -1,-2 -1,-2 -1,-1 -1,-2 -2,-2 -1,-1 -2,-2 -2,-1 -1,-1 -2,-1 -3,-2 -2,0 -2,-1 -3,-1 -2,-1 -3,0 -3,0 -3,-1 -3,0 -3,0 -3,0 -4,0 -3,1 -4,0 -3,0 -4,1 -4,1 -4,0 -4,1 -4,1 -4,1 -5,2 -4,1 -5,1 -4,2 -5,1 -4,2 -5,2 -5,2 -5,2 -5,2 -5,2 -5,2 -5,3 -5,2 -5,3 -5,3 -6,2 -5,3 -5,3 -6,3 -5,3 -5,3 -6,3 -5,4 -6,3 -5,3 -6,4 -5,3 -6,4 -5,4 -6,4 -5,3 -5,4 -6,4 -5,4 -6,4 -5,4 -6,4 -5,4 -5,5 -5,4 -6,4 -5,4 -5,5 -5,4 -5,4 -5,5 -5,4 -5,5 -5,4 -4,4 -5,5 -5,4 -4,5 -5,4 -4,5 -4,4 -5,5 -4,4 -4,5 -4,4 -4,5 -3,4 -4,4 -4,5 -3,4 -4,4 -3,5 -3,4 -3,4 -3,4 -3,4 -3,4 -2,5 -3,4 -2,3 -2,4 -2,4 -2,4 -2,4 -2,3 -2,4 -1,3 -2,4 -1,3 -1,4 -1,3 -1,3 -1,3 0,3 -1,3 0,3 0,3 0,3 0,2 0,3 0,2 0,2 1,3 1,2 0,2 1,2 2,2 1,2 1,1 1,2 2,1 2,2 2,1 2,1 2,1 2,1 2,1 3,1 2,0 3,1 3,0 2,1 3,0 4,0 3,0 3,0 4,0 3,-1 4,0 3,-1 4,0 4,-1 4,-1 4,-1 4,-1 5,-1 4,-1 5,-2 4,-1 5,-2 4,-1 5,-2 5,-2 5,-2 4,-2 5,-2 5,-2 5,-3 6,-2 5,-3 5,-2 5,-3 5,-3 6,-3 5,-3 6,-3 5,-3 5,-3 6,-3 5,-3 6,-4 5,-3 6,-4 5,-3 6,-4 5,-4 6,-4 5,-3 6,-4 5,-4 5,-4 6,-4 5,-4 5,-4 6,-5 5,-4 5,-4 6,-4 5,-5 5,-4 5,-4 5,-5 5,-4 5,-4 5,-5 4,-4 5,-5 5,-4 4,-5 5,-4 4,-5 4,-4 5,-5 4,-4 4,-5 4,-4 4,-5 4,-4 3,-4 4,-5 4,-4 3,-4 3,-5 4,-4 3,-4 3,-4 3,-4 2,-5 3,-4 3,-4 2,-4 2,-4 2,-3 3,-4 1,-4 2,-4 2,-3 2,-4 1,-3 1,-4 2,-3 1,-3 1,-4 0,-3 1,-3 1,-3 0,-3 0,-3 0,-2 0,-3 0,-2 0,-3 0,-2 -1,-3 0,-2 -1,-2 -1,-2 -1,-2 -1,-2 -1,-1 -2,-2 -1,-2 -2,-1 -2,-1 -2,-1 -2,-2 -2,-1 -2,-1 -2,0 -3,-1 -3,-1 -2,0 -3,0 -3,-1 -3,0 -3,0 -4,0 -3,0 -4,1 -3,0 -4,0 -4,1 -3,1 -4,1 -4,0 -5,1 -4,2 -4,1 -5,1 -4,1 -5,2 -4,2 -5,1 -5,2 -4,2 -5,2 -5,2 -5,2 -5,3 -5,2 -5,3 -6,2 -5,3 -5,3 -5,2 -6,3 -5,3 -6,3 -5,3 -5,4 -6,3 -5,3 -6,4 -5,3 -6,4 -5,3 -6,4 -5,4 -6,4 -5,4 -6,3 -5,4 -5,4 -6,5 -5,4 -5,4 -6,4 -5,4 -5,4 -5,5 -5,4 -6,4 -5,5 -5,4 -5,5 -4,4 -5,4 -5,5 -5,4 -4,5 -5,4 -4,5 -5,4 -4,5 -4,4 -4,5 -4,4 -4,5 -4,4 -4,4 -3,5 -4,4 -4,5 -3,4 -3,4 -3,4 -3,5 -3,4 -3,4 -3,4 -2,4 -3,4 -2,4 -3,4 -2,4 -2,3 -2,4 -1,4 -2,3 -1,4 -2,3 -1,4 -1,3 -1,3 -1,3 -1,4 0,3 -1,3 0,2 0,3 0,3 0,2 0,3 0,2 0,3 1,2 1,2 1,2 1,2 1,2 1,2 1,1 2,2 1,1 2,2 2,1 2,1 2,1 2,1 2,1 3,1 2,0 3,1 3,0 3,1 3,0 3,0 3,0 4,0 3,0 3,-1 4,0 4,-1 4,0 4,-1 4,-1 4,-1 4,-1 4,-1 5,-1 4,-2 4,-1 5,-2 5,-1 4,-2 5,-2 5,-2 5,-2 5,-2 5,-3 5,-2 5,-2 5,-3 6,-3 5,-2 5,-3 5,-3 6,-3 5,-3 5,-3 6,-3 5,-3 6,-4 5,-3 6,-4 5,-3 6,-4 5,-3 6,-4 5,-4 6,-4 5,-4 6,-4 5,-4 5,-4 6,-4 5,-4 5,-4 6,-4 5,-4 5,-5 5,-4 5,-4 5,-5 5,-4 5,-5 5,-4 5,-4 5,-5 5,-4 4,-5 5,-4 4,-5 5,-4 4,-5 4,-4 4,-5 4,-4 4,-5 4,-4 4,-4 4,-5 3,-4 4,-4 3,-5 4,-4 3,-4 3,-5 3,-4 3,-4 3,-4 2,-4 3,-4 2,-4 3,-4 2,-4 2,-4 2,-3 1,-4 2,-4 2,-3 1,-4 1,-3 2,-3 1,-4 1,-3 0,-3 1,-3 1,-3 0,-3 0,-3 0,-3 0,-2 0,-3 0,-2 0,-3 -1,-2 0,-2 -1,-2 -1,-2 -1,-2 -1,-2 -2,-2 -1,-1 -2,-2 -1,-1 -2,-1 -2,-2 -2,-1 -2,-1 -2,-1 -3,0 -2,-1 -3,-1 -3,0 -2,0 -3,-1 -4,0 -3,0 -3,0 -3,0 -4,1 -3,0 -4,0 -4,1 -4,1 -4,1 -4,1 -4,1 -4,1 -5,1 -4,1 -4,2 -5,1 -5,2 -4,2 -5,1 -5,2 -5,2 -5,2 -5,3 -5,2 -5,2 -5,3 -5,2 -5,3 -6,3 -5,3 -5,3 -6,3 -5,3 -5,3 -6,3 -5,3 -6,4 -5,3 -6,4 -5,3 -6,4 -5,4 -6,3 -5,4 -6,4 -5,4 -6,4 -5,4 -5,4 -6,4 -5,4 -5,4 -6,5 -5,4 -5,4 -5,5 -5,4 -5,4 -5,5 -5,4 -5,5 -5,4 -4,4 -5,5 -5,4 -4,5 -5,4 -4,5 -4,4 -5,5 -4,4 -4,5 -4,4 -3,5 -4,4 -4,4 -3,5 -4,4 -3,4 -3,5 -4,4 -3,4 -3,4 -2,4 -3,4 -3,4 -2,4 -2,4 -3,4 -2,4 -2,4 -2,3 -1,4 -2,4 -2,3 -1,4 -1,3 -1,3 -1,4 -1,3 -1,3 0,3 -1,3 0,3 0,2 0,3 0,3 0,2 0,3 1,2 0,2 1,2 1,2 1,2 1,2 1,2 1,2 2,1 1,2 2,1 2,1 2,1 2,1 2,1 3,1 2,1 3,0 2,1 3,0 3,1 3,0 3,0 4,0 3,0 3,0 4,-1 4,0 3,-1 4,0 4,-1 4,-1 4,-1 4,-1 5,-1 4,-2 4,-1 5,-1 5,-2 4,-2 5,-1 5,-2 5,-2 4,-2 5,-3 5,-2 6,-2 5,-3 5,-2 5,-3 5,-3 6,-2 5,-3 5,-3 6,-3 5,-3 5,-3 6,-4 5,-3 6,-4 5,-3 6,-4 5,-3 6,-4 5,-4 6,-3 5,-4 6,-4 5,-4 5,-4 6,-4 5,-4"
         id="path12385"
         style="stroke-width:2.58541322;stroke-miterlimit:4;stroke-dasharray:none"
         inkscape:connector-curvature="0" />
    </g>
  </g>
  <g
     inkscape:groupmode="layer"
     id="layer2"
     inkscape:label="Labels"
     style="display:inline">
    <text
       xml:space="preserve"
       style="font-style:normal;font-variant:normal;font-weight:normal;font-stretch:normal;font-size:24px;line-height:125%;font-family:'Bitstream Vera Sans';text-align:start;writing-mode:lr-tb;text-anchor:start;fill:#ff0000;fill-opacity:1;stroke:none;stroke-width:1px;stroke-linecap:butt;stroke-linejoin:miter;stroke-opacity:1"
       x="472.19174"
       y="128.84305"
       id="text4146"
       sodipodi:linespacing="125%"><tspan
         sodipodi:role="line"
         id="tspan4148"
         x="472.19174"
         y="128.84305">V<tspan
   style="font-size:65%;baseline-shift:sub"
   id="tspan4970">out</tspan></tspan></text>
    <text
       xml:space="preserve"
       style="font-style:normal;font-weight:normal;font-size:24px;font-family:'Bitstream Vera Sans';fill:#000000;fill-opacity:1;stroke:none;stroke-width:1px;stroke-linecap:butt;stroke-linejoin:miter;stroke-opacity:1"
       x="275.13049"
       y="85.97084"
       id="text2638"><tspan
         sodipodi:role="line"
         id="tspan2640"
         x="275.13049"
         y="85.97084">V<tspan
   style="font-size:64.99999762%;baseline-shift:sub"
   id="tspan4273">in</tspan></tspan></text>
    <path
       style="fill:none;fill-opacity:0.75;fill-rule:evenodd;stroke:#ff0000;stroke-width:1px;stroke-linecap:butt;stroke-linejoin:miter;stroke-opacity:1"
       d="m 386.20249,76.770829 83.2,35.200011"
       id="path3318"
       sodipodi:nodetypes="cc"
       inkscape:connector-curvature="0" />
    <path
       style="fill:none;fill-opacity:0.75;fill-rule:evenodd;stroke:#000000;stroke-width:1px;stroke-linecap:butt;stroke-linejoin:miter;stroke-opacity:1"
       d="m 360.60248,66.104159 -57.59999,7.46667"
       id="path4046"
       sodipodi:nodetypes="cc"
       inkscape:connector-curvature="0" />
    <text
       xml:space="preserve"
       style="font-style:normal;font-variant:normal;font-weight:normal;font-stretch:normal;font-size:24px;line-height:125%;font-family:'Bitstream Vera Sans';text-align:start;writing-mode:lr-tb;text-anchor:start;fill:#000000;fill-opacity:1;stroke:none;stroke-width:1px;stroke-linecap:butt;stroke-linejoin:miter;stroke-opacity:1"
       x="287.1091"
       y="488.64935"
       id="text5081"
       sodipodi:linespacing="125%"><tspan
         sodipodi:role="line"
         id="tspan5083"
         x="287.1091"
         y="488.64935">Time</tspan></text>
    <text
       xml:space="preserve"
       style="font-style:normal;font-variant:normal;font-weight:normal;font-stretch:normal;font-size:24px;line-height:125%;font-family:'Bitstream Vera Sans';text-align:start;writing-mode:lr-tb;text-anchor:start;fill:#000000;fill-opacity:1;stroke:none;stroke-width:1px;stroke-linecap:butt;stroke-linejoin:miter;stroke-opacity:1"
       x="-295.09259"
       y="42.611984"
       id="text5085"
       sodipodi:linespacing="125%"
       transform="matrix(0,-1,1,0,0,0)"><tspan
         sodipodi:role="line"
         id="tspan5087"
         x="-295.09259"
         y="42.611984">Voltage</tspan></text>
    <text
       xml:space="preserve"
       style="font-style:normal;font-variant:normal;font-weight:bold;font-stretch:normal;font-size:24px;line-height:125%;font-family:'Bitstream Vera Sans';text-align:start;writing-mode:lr-tb;text-anchor:start;fill:#000000;fill-opacity:1;stroke:none;stroke-width:1px;stroke-linecap:butt;stroke-linejoin:miter;stroke-opacity:1"
       x="296.31604"
       y="520.73853"
       id="text1658"
       sodipodi:linespacing="125%"><tspan
         sodipodi:role="line"
         id="tspan1660"
         x="296.31604"
         y="520.73853">(a)</tspan></text>
    <text
       sodipodi:linespacing="125%"
       id="text1662"
       y="520.73853"
       x="890.31061"
       style="font-style:normal;font-variant:normal;font-weight:bold;font-stretch:normal;font-size:24px;line-height:125%;font-family:'Bitstream Vera Sans';text-align:start;writing-mode:lr-tb;text-anchor:start;fill:#000000;fill-opacity:1;stroke:none;stroke-width:1px;stroke-linecap:butt;stroke-linejoin:miter;stroke-opacity:1"
       xml:space="preserve"><tspan
         y="520.73853"
         x="890.31061"
         id="tspan1664"
         sodipodi:role="line">(b)</tspan></text>
    <text
       xml:space="preserve"
       style="font-style:normal;font-variant:normal;font-weight:normal;font-stretch:normal;font-size:24px;line-height:125%;font-family:'Bitstream Vera Sans';text-align:start;writing-mode:lr-tb;text-anchor:start;fill:#000000;fill-opacity:1;stroke:none;stroke-width:1px;stroke-linecap:butt;stroke-linejoin:miter;stroke-opacity:1"
       x="215.32259"
       y="258.87097"
       id="text2293"
       sodipodi:linespacing="125%"><tspan
         sodipodi:role="line"
         id="tspan2295"
         x="215.32259"
         y="258.87097"
         style="font-size:30px">Δt</tspan></text>
    <path
       style="fill:none;fill-opacity:0.75;fill-rule:evenodd;stroke:#000000;stroke-width:1px;stroke-linecap:butt;stroke-linejoin:miter;stroke-opacity:1"
       d="m 158.46774,269.35484 0,-38.70968"
       id="path2297"
       inkscape:connector-curvature="0" />
    <path
       id="path2299"
       d="m 185.48387,269.35484 0,-38.70968"
       style="fill:none;fill-opacity:0.75;fill-rule:evenodd;stroke:#000000;stroke-width:1px;stroke-linecap:butt;stroke-linejoin:miter;stroke-opacity:1"
       inkscape:connector-curvature="0" />
    <text
       xml:space="preserve"
       style="font-style:normal;font-variant:normal;font-weight:normal;font-stretch:normal;font-size:25px;line-height:125%;font-family:'Bitstream Vera Sans';-inkscape-font-specification:'Bitstream Vera Sans, Normal';text-align:start;letter-spacing:0px;word-spacing:0px;writing-mode:lr-tb;text-anchor:start;fill:#000000;fill-opacity:1;stroke:none;stroke-width:1px;stroke-linecap:butt;stroke-linejoin:miter;stroke-opacity:1"
       x="-273.15286"
       y="634.45801"
       id="text4304"
       sodipodi:linespacing="125%"
       transform="matrix(0,-1,1,0,0,0)"><tspan
         sodipodi:role="line"
         id="tspan4306"
         x="-273.15286"
         y="634.45801"
         style="font-style:normal;font-variant:normal;font-weight:normal;font-stretch:normal;font-size:25px;line-height:125%;font-family:'Bitstream Vera Sans';-inkscape-font-specification:'Bitstream Vera Sans, Normal';text-align:start;writing-mode:lr-tb;text-anchor:start">V<tspan
   style="font-size:65%;baseline-shift:sub"
   id="tspan4972">out</tspan></tspan></text>
    <text
       id="text4314"
       y="486.05014"
       x="894.64777"
       style="font-style:normal;font-weight:normal;font-size:24px;font-family:'Bitstream Vera Sans';fill:#000000;fill-opacity:1;stroke:none;stroke-width:1px;stroke-linecap:butt;stroke-linejoin:miter;stroke-opacity:1"
       xml:space="preserve"><tspan
         y="486.05014"
         x="894.64777"
         id="tspan4316"
         sodipodi:role="line">V<tspan
   id="tspan4318"
   style="font-size:64.99999762%;baseline-shift:sub">in</tspan></tspan></text>
    <path
       style="fill:none;fill-opacity:0.75;fill-rule:evenodd;stroke:#000000;stroke-width:2;stroke-linecap:butt;stroke-linejoin:miter;stroke-miterlimit:4;stroke-dasharray:none;stroke-opacity:1;marker-end:url(#Arrow2Mend)"
       d="m 136.69355,250.27897 13.30645,0"
       id="path1423"
       sodipodi:nodetypes="cc"
       inkscape:connector-curvature="0" />
    <path
       sodipodi:nodetypes="cc"
       id="path2291"
       d="m 207.66129,250.27897 -13.30645,0"
       style="fill:none;fill-opacity:0.75;fill-rule:evenodd;stroke:#000000;stroke-width:2;stroke-linecap:butt;stroke-linejoin:miter;stroke-miterlimit:4;stroke-dasharray:none;stroke-opacity:1;marker-end:url(#Arrow2Mend)"
       inkscape:connector-curvature="0" />
    <text
       xml:space="preserve"
       style="font-style:normal;font-variant:normal;font-weight:bold;font-stretch:normal;font-size:25px;font-family:Monospace;text-align:start;writing-mode:lr-tb;text-anchor:start;fill:#000000;fill-opacity:1;stroke:none;stroke-width:1px;stroke-linecap:butt;stroke-linejoin:miter;stroke-opacity:1"
       x="1019.5454"
       y="435.91592"
       id="text1549"><tspan
         sodipodi:role="line"
         id="tspan1551"
         x="1019.5454"
         y="435.91592"
         style="font-style:normal;font-variant:normal;font-weight:normal;font-stretch:normal;font-size:25px;font-family:'Bitstream Vera Sans';-inkscape-font-specification:'Bitstream Vera Sans'">(X-Y Mode)</tspan></text>
  </g>
</svg>
